<mxfile host="app.diagrams.net" modified="2024-07-24T10:55:12.141Z" agent="Mozilla/5.0 (Windows NT 10.0; Win64; x64) AppleWebKit/537.36 (KHTML, like Gecko) Chrome/126.0.0.0 Safari/537.36" etag="MHUzrzhv71AH1i_UUWdC" version="24.7.1" type="github">
  <diagram id="pz04NOGjsuSeUkuZ-QFT" name="Layer_1">
    <mxGraphModel dx="2298" dy="991" grid="1" gridSize="10" guides="1" tooltips="1" connect="1" arrows="1" fold="1" page="1" pageScale="1" pageWidth="850" pageHeight="1100" math="0" shadow="0">
      <root>
        <mxCell id="0" />
        <mxCell id="1" parent="0" />
        <mxCell id="G_j2vgRkdE4tbqR_UgK8-81" value="" style="rounded=0;whiteSpace=wrap;html=1;align=left;verticalAlign=middle;spacingLeft=-3;spacingRight=-3;spacingTop=-3;spacingBottom=-3;fontFamily=Helvetica;fontSize=12;fontColor=default;labelBackgroundColor=none;fillColor=none;gradientColor=none;dashed=1;dashPattern=8 8;" vertex="1" parent="1">
          <mxGeometry x="975" y="243" width="990" height="670" as="geometry" />
        </mxCell>
        <mxCell id="G_j2vgRkdE4tbqR_UgK8-79" value="" style="rounded=0;whiteSpace=wrap;html=1;align=left;verticalAlign=middle;spacingLeft=-3;spacingRight=-3;spacingTop=-3;spacingBottom=-3;fontFamily=Helvetica;fontSize=12;fontColor=#ffffff;labelBackgroundColor=none;fillColor=#F7F6F1;strokeColor=#6D1F00;" vertex="1" parent="1">
          <mxGeometry x="935" y="150" width="1070" height="800" as="geometry" />
        </mxCell>
        <mxCell id="G_j2vgRkdE4tbqR_UgK8-83" value="" style="rounded=0;whiteSpace=wrap;html=1;align=left;verticalAlign=middle;spacingLeft=-3;spacingRight=-3;spacingTop=-3;spacingBottom=-3;fontFamily=Helvetica;fontSize=12;fontColor=default;labelBackgroundColor=none;fillColor=none;gradientColor=none;dashed=1;dashPattern=8 8;strokeColor=#CC6600;" vertex="1" parent="1">
          <mxGeometry x="1050" y="491.5" width="810" height="100" as="geometry" />
        </mxCell>
        <mxCell id="G_j2vgRkdE4tbqR_UgK8-85" value="" style="rounded=0;whiteSpace=wrap;html=1;align=left;verticalAlign=middle;spacingLeft=-3;spacingRight=-3;spacingTop=-3;spacingBottom=-3;fontFamily=Helvetica;fontSize=12;fontColor=default;labelBackgroundColor=none;fillColor=none;gradientColor=none;dashed=1;dashPattern=8 8;strokeColor=#CC6600;" vertex="1" parent="1">
          <mxGeometry x="1050" y="630" width="810" height="230" as="geometry" />
        </mxCell>
        <mxCell id="G_j2vgRkdE4tbqR_UgK8-91" value="" style="rounded=0;whiteSpace=wrap;html=1;align=left;verticalAlign=middle;spacingLeft=-3;spacingRight=-3;spacingTop=-3;spacingBottom=-3;fontFamily=Helvetica;fontSize=12;labelBackgroundColor=none;fillColor=#F2ECEB;strokeColor=#331A00;" vertex="1" parent="1">
          <mxGeometry x="1150" y="510" width="640" height="320" as="geometry" />
        </mxCell>
        <mxCell id="Aclf-5IVf1YPgZWVU2Xc-116" style="vsdxID=115;fillColor=#FFFFFF;gradientColor=none;shape=stencil(pVbLbsMgEPwaX1ewvM9p+x+R4jRW0zhy0tffF8tyGyAZh/aG8QzMLssyjVqddutj27A4nYf+pf3oNuddox4a5u6wa4fuHEeNemzUatsP7fPQvx020/dxPSLH0Wv/Pq7wOfG8IDOSWHxNE1YSTzNPE37fHS7xioJNCCaQcrcJwZLRKYFJhtsEKUQKFzWLa0+Sa+RrQUEDQp4fFUjYCrxm8rIGD5Ifz0bIu9HOU1AJWlZqZ5D6MpOMz9VrYp/K8aRR6g0xp9Fi+YZMGi+SzyQyNeRBGVs//57xuNCsIZ0eVSALshPXN2nyJRbkxJy8H4KCiozLd1B4h5KgYQglHheEMSRUBV5q0q4Gz8T2X3gc7xU8uI0RfDdW/BXpYIBZX8XlkoENKdDF8uAW4GXmqgmx86Nn6grBk0OEorgWCGX1LhGK61FPwEGXBIs7bOwhMo3BW/IedilOm45fbIMipDEIeNJlHwy4S3lJrjhpaAGKZ2V2HLeerZA1coMdQ/EwRokGvVuKbBqyc3WewQP90QVYztBQf2kyFi5nIaca7wg5zkWHGge/9nbb7feTO778n9vhODVZafX4DQ==);strokeColor=none;strokeWidth=2;spacingTop=-3;spacingBottom=-3;spacingLeft=-3;spacingRight=-3;labelBackgroundColor=none;rounded=0;html=1;whiteSpace=wrap;" parent="1" vertex="1">
          <mxGeometry x="503" y="360" width="66" height="67" as="geometry" />
        </mxCell>
        <mxCell id="Aclf-5IVf1YPgZWVU2Xc-133" style="vsdxID=132;fillColor=none;gradientColor=none;strokeColor=none;spacingTop=-3;spacingBottom=-3;spacingLeft=-3;spacingRight=-3;labelBackgroundColor=none;rounded=0;html=1;whiteSpace=wrap;" parent="1" vertex="1">
          <mxGeometry x="870" y="1000" width="158" height="86" as="geometry" />
        </mxCell>
        <mxCell id="Aclf-5IVf1YPgZWVU2Xc-134" value="&lt;p style=&quot;align:left;margin-left:0;margin-right:0;margin-top:0px;margin-bottom:0px;text-indent:0;valign:middle;direction:ltr;&quot;&gt;&lt;font style=&quot;font-size:16px;font-family:OracleSans-Regular;color:#100f0e;direction:ltr;letter-spacing:0px;line-height:120%;opacity:1&quot;&gt;End Users&lt;br/&gt;&lt;/font&gt;&lt;/p&gt;" style="verticalAlign=middle;align=left;vsdxID=133;fillColor=none;gradientColor=none;shape=stencil(nZBLDoAgDERP0z3SIyjew0SURgSD+Lu9kMZoXLhwN9O+tukAlrNpJg1SzDH4QW/URgNYgZTkjA4UkwJUgGXng+6DX1zLfmoymdXo17xh5zmRJ6Q42BWCfc2oJfdAr+Yv+AP9Cb7OJ3H/2JG1HNGz/84klThPVCc=);strokeColor=none;spacingTop=-3;spacingBottom=-3;spacingLeft=-3;spacingRight=-3;labelBackgroundColor=none;rounded=0;html=1;whiteSpace=wrap;" parent="Aclf-5IVf1YPgZWVU2Xc-133" vertex="1">
          <mxGeometry x="7" y="66" width="151" height="20" as="geometry" />
        </mxCell>
        <mxCell id="Aclf-5IVf1YPgZWVU2Xc-135" style="vsdxID=134;fillColor=none;gradientColor=none;strokeColor=none;spacingTop=-3;spacingBottom=-3;spacingLeft=-3;spacingRight=-3;labelBackgroundColor=none;rounded=0;html=1;whiteSpace=wrap;" parent="Aclf-5IVf1YPgZWVU2Xc-133" vertex="1">
          <mxGeometry width="90" height="67" as="geometry" />
        </mxCell>
        <mxCell id="Aclf-5IVf1YPgZWVU2Xc-136" style="vsdxID=135;fillColor=none;gradientColor=none;strokeColor=none;spacingTop=-3;spacingBottom=-3;spacingLeft=-3;spacingRight=-3;labelBackgroundColor=none;rounded=0;html=1;whiteSpace=wrap;" parent="Aclf-5IVf1YPgZWVU2Xc-135" vertex="1">
          <mxGeometry width="90" height="67" as="geometry" />
        </mxCell>
        <mxCell id="Aclf-5IVf1YPgZWVU2Xc-137" style="vsdxID=136;fillColor=#FFFFFF;gradientColor=none;shape=stencil(pVbLctswDPwaXTEkwOc5Sf8jkzi1pq6dUZwm/fvSQ0kEIEvjNDeJ2uVyIXDJju7e9o+vuw7N23k4/dp99M/nfUf3HWJ/3O+G/lyeOnro6O7lNOx+Dqf343N9f328IC9Pv09/LjN8Vp65MND8rW/W1PcfFXroj6vQgBATBz+9D3ViK+Hjq/dArg59Yh1y4EfMNJDB2xFDdShDxBFEGnR1lZYAo1jp9wnaWgZ00p0LgEm6CxCcsmfAkrTHQOMIEYSwJc4o4wgWCkpxi5CkuPWAqrZY1qPUG2pFHSO4LOX5zNhMqH/LF0lL1K3uOWcaipCC0kdwQRXfQvRK30Cyqrkc5M2uLjNHKe8IKCp5B4mUPAJlJR8gRyU/o662avHgVKt+mWDA+U2DASKpAgfw2iFBytJh2RVOF5ihpp5DMJsNxjlTgxkwJPWdleJGCnsjVc2WoldyRkqFAFaplVBSW4mDbnXKOXauYVSVDiyecPk/JsMJPEn98qdlQMvW4Iy5l8asvUoILVJW8AuDHqzeLDOnGYyg90rZ42qvhAxWdZIrB8p2fdvETd3o8gYglVSUZi32e2mZVNtJwTktqLOX+hHnI48ltVfHRMxzxLGkHlEr+ikCSnk+8dTJJbxUUPJF0hJ1q33OsXNHOmU/lybVQc2O0lEsXUnKUhG33qycMUUC2LBOKAvBtE1YOPSLpGycdhIbI/35MPXt7K9hpn4jcLS+2Ib/8rXt/6HloV0iX/rDod5B+Xd96SxD9cJKD/8A);strokeColor=none;strokeWidth=2;spacingTop=-3;spacingBottom=-3;spacingLeft=-3;spacingRight=-3;labelBackgroundColor=none;rounded=0;html=1;whiteSpace=wrap;" parent="Aclf-5IVf1YPgZWVU2Xc-136" vertex="1">
          <mxGeometry x="1" y="1" width="88" height="65" as="geometry" />
        </mxCell>
        <mxCell id="Aclf-5IVf1YPgZWVU2Xc-138" style="vsdxID=137;fillColor=#FFFFFF;gradientColor=none;shape=stencil(pVnbUtswEP2avO5otbo+U/ofTAklU0qYAC39+yqNZa1WtuTQt0Q5x3u/yNnRzevj3ct+p9Xr2+n4Y//7cP/2uKMvO60Pz4/70+EtfdrR7Y5uHo6n/ffT8f35/vL95e6MPH/6efx1fsLHhWfVmaLVn8tXAqR/B18v4G/vpwsaJ3gAnAgoGOpDX06cARsm0HSECHHifVCLmo60hhB60jkni1dgUMhHsL6WTw5cqOVbDyjkGyWsfzo8c1cxxkRI+uA6wWmwfXxjoIXoawMLpxgYIAoHGwdeONgrCFQbaJOBbl1f74BipXBDkAp7BOWEwgFsFAo7iEJfDUomRAFNJ2QAfdddhTKdaAsq1MK9hvP3Kh09BC+8lXxqavEFtSI+WHC2ls+fPAmLqsRUt1pSi9pqPudg69dJWPCgTC2fh2gSFhCMKIdBtgQDPvv1swSETvmECNjHNw4h8CIgM6XEw4OxtT+sAxTZyFE5QTVQWFeXM6YTJxKoJqTH4X/hG4WkPxgDW0tzcYIS5cF8lktBlUynLbFDC7rulVfj+8mEAfSVvQo1xHGvCiBba9uqCmZrqRbGeqNCU/J9vVHptq0PG5X2YMeNivR81GlUHLXVes5Zb1SateD1RpUWDrquUfHnbkyVtFV4MVn4hM0OoyZX2LDOzmHtlyRqUd/kGnKVvtcT5CbTGOibWuA7kp4DG0Wr5PsWtaitmxxZMLqWz3fE7E6UewPbNufgi2QUlnfXXdXTMTnRm1pH1SQA1vqlRklGuKeANnuH5JadzNIj2QnTJF8rO+WsHqS+FZmReq0VpepyARXL03QXodFsOSSJWmvSSWNRefzJ88zyY+MZaPNCWSjZHVHaHoColr1Q9SmZUQg3c8ktDzQ2YlcITYKCo1rbQpnVVbWu1syjIOsqCmiw5tQFNFhZajAqtQ5ttpsuOi1bLm6H5x8/BR7YKOHDrawQcI6JFgkeLaCchSy2eQ+JQKLzDrKs3amHWRZRXrIWrqRp87Zid2GVQy1o8x2HcUovlOIX7jgL/cjHLGx7P/IGlFhdlvpRBCPlB2l+e8FNFTxFefsFd+7fnds1mxbrsocvWxrZfLjldhJBi0GgaslyPncKrzectyPFwI9lOZmXin59pgJWYu63U8AROGF4WqCiWFadgSBnUApgt944ByWHv2QLYgSWWurKH87ABfnMsiyfXdhWC56/zqLZ+1Pj3i6+RKzn/oRS0vzyAo4kaDmvlrLlakJvfG4g1Amc4qVIEvouJPaipSQwyuXelk1r/TUpR22+7rm5T3QyiF9BdKslzUcygwchSc/VXjpMXavwQs4tOIyjqI3XWs4LhccRvpqQPpQ3/g+Hp6fLHwb8d/kPQTq6/LtAt38B);strokeColor=none;strokeWidth=2;spacingTop=-3;spacingBottom=-3;spacingLeft=-3;spacingRight=-3;labelBackgroundColor=none;rounded=0;html=1;whiteSpace=wrap;" parent="Aclf-5IVf1YPgZWVU2Xc-136" vertex="1">
          <mxGeometry width="90" height="67" as="geometry" />
        </mxCell>
        <mxCell id="Aclf-5IVf1YPgZWVU2Xc-217" style="vsdxID=217;fillColor=none;gradientColor=none;strokeColor=none;spacingTop=-3;spacingBottom=-3;spacingLeft=-3;spacingRight=-3;labelBackgroundColor=none;rounded=0;html=1;whiteSpace=wrap;" parent="1" vertex="1">
          <mxGeometry x="1220" y="970" width="50" height="105" as="geometry" />
        </mxCell>
        <mxCell id="Aclf-5IVf1YPgZWVU2Xc-218" style="vsdxID=218;fillColor=none;gradientColor=none;strokeColor=none;spacingTop=-3;spacingBottom=-3;spacingLeft=-3;spacingRight=-3;labelBackgroundColor=none;rounded=0;html=1;whiteSpace=wrap;" parent="Aclf-5IVf1YPgZWVU2Xc-217" vertex="1">
          <mxGeometry x="6" width="38" height="51" as="geometry" />
        </mxCell>
        <mxCell id="Aclf-5IVf1YPgZWVU2Xc-219" style="vsdxID=219;fillColor=none;gradientColor=none;strokeColor=none;spacingTop=-3;spacingBottom=-3;spacingLeft=-3;spacingRight=-3;labelBackgroundColor=none;rounded=0;html=1;whiteSpace=wrap;" parent="Aclf-5IVf1YPgZWVU2Xc-218" vertex="1">
          <mxGeometry width="38" height="51" as="geometry" />
        </mxCell>
        <mxCell id="Aclf-5IVf1YPgZWVU2Xc-220" style="vsdxID=220;fillColor=#FFFFFF;gradientColor=none;shape=stencil(lVNBcsMgDHwNV42QAMM5Tf+RaZyaqWtniNMmv69dkXFwmra5iWWX1SyS4tWh2exrRXgYUv9Wf8bt0Ch+UkSxa+oUh7FSvFa82vWpfk39sdvKeb+ZmFP13n9ML5xEZzwgTSrCsyAhgK2+kWcRvByTKLQQiEG7LMlQIHBaoBMJpDX4CytDHsFwZrFADijrzhmpNPBv7lg6OwRflc5YuloNlSldsbScGdmzjd1VRFjEox1Yuk+2COQLAd4na3zo7SX9pu9lVrMgA5YBTZnW+N3GLP7JAYYysdEq+DK1mzn5K4hLNz/S/zGHDwvGYh77XWxb2Zrr++WajJCsGK+/AA==);strokeColor=none;strokeWidth=2;spacingTop=-3;spacingBottom=-3;spacingLeft=-3;spacingRight=-3;labelBackgroundColor=none;rounded=0;html=1;whiteSpace=wrap;" parent="Aclf-5IVf1YPgZWVU2Xc-219" vertex="1">
          <mxGeometry x="1" y="1" width="37" height="48" as="geometry" />
        </mxCell>
        <mxCell id="Aclf-5IVf1YPgZWVU2Xc-221" style="vsdxID=221;fillColor=#FFFFFF;gradientColor=none;shape=stencil(rVXbcoMgEP0aX3dgYbk8p+l/ZBrTOE1jxpg2/ftiERUcjJnpG67nsLuHs1CIzfW4u5QFsmvb1B/ld7Vvj4V4KRCr87FsqtatCrEtxOZQN+V7U9/Oe/992XXIbvVZf3U73D2PGBjesZD9+IgEEn+BV48/VecJ3hIoE+G5BSGfIRAHGRHebo0vic8pfYgQlPahOw4oLntUHzIIGnuUGJIJ6lFiIDKVL3iuiCNIvUhAnRLiDGmHqIF03KExYGzcIVegVdyh1qBN3CHnAzF0qGyQJpOfwFIisJ0JPAHhIKahRN8RJDLHm6g1Elb557FBHxma5TeXBlRcjWNjHi8AZVy8s+pC8SwGKzALPmKpLJrWgseDyRx4gOfHKSD6T+XmJhklBTLxmebA7VLaqTeDz920UJzayRpMHdJbBJ743J0V53F+awNq5ek6Atk8YT7JnC24hybdrdsfQYqUEHcwuwstSJUoqIDx5KZgyfGRAGZj/UaMyJgmLnbErzLkDL5sdju521aN0lzs5VF96h74T7BbjI/toTqd/Fs9/Z8+zi7kH3ax/QU=);strokeColor=none;strokeWidth=2;spacingTop=-3;spacingBottom=-3;spacingLeft=-3;spacingRight=-3;labelBackgroundColor=none;rounded=0;html=1;whiteSpace=wrap;" parent="Aclf-5IVf1YPgZWVU2Xc-219" vertex="1">
          <mxGeometry width="38" height="51" as="geometry" />
        </mxCell>
        <mxCell id="Aclf-5IVf1YPgZWVU2Xc-222" style="vsdxID=222;fillColor=none;gradientColor=none;strokeColor=none;spacingTop=-3;spacingBottom=-3;spacingLeft=-3;spacingRight=-3;labelBackgroundColor=none;rounded=0;html=1;whiteSpace=wrap;" parent="Aclf-5IVf1YPgZWVU2Xc-218" vertex="1">
          <mxGeometry x="2" y="2" width="34" height="46" as="geometry" />
        </mxCell>
        <mxCell id="Aclf-5IVf1YPgZWVU2Xc-223" style="vsdxID=224;fillColor=#bb501c;gradientColor=none;shape=stencil(lVTbboMwDP0aXq3ETiB+7rr/qFa6onWlou3W/v3CAgQHgcpb7Bz7+HLkjDbX4+5SZqiut6b+Kn+r/e2Y0VuGWJ2PZVPd/CujbUabQ92Un019P++Dfdm1yPb1Xf+0GR4hzirI2yBUz+BQ/9Z7wJ6q8wirBFDngPwq2Gqwbgz+uDehDC3hnWkRlAmuB0pEZ+a+cOoQ1LkGz7PzFLpPM0OrPY+V1E6BYkmNBgrJzgikJbthMJKdGaydn5BN5qkWRj9Z0yR32hnHcvrGLHAhG+s5h7783NnIviKGZnYpS434l3SyRoDLWClstlC4dRoch+jpPHBAaSen5hBcooZRqTTEmUV60sAk6VmBTTbmIE+06DQYK9l1dPX0OQPSEr0vD5PmGQqS9CMQplONvUdQlIwW5MleY8DQpV4hA4Ic5+FTJSynf0E5qwP8I17gQ3U6hQM+/k8vtneFa0/bPw==);strokeColor=none;strokeWidth=2;spacingTop=-3;spacingBottom=-3;spacingLeft=-3;spacingRight=-3;labelBackgroundColor=none;rounded=0;html=1;whiteSpace=wrap;" parent="Aclf-5IVf1YPgZWVU2Xc-222" vertex="1">
          <mxGeometry width="34" height="46" as="geometry" />
        </mxCell>
        <mxCell id="Aclf-5IVf1YPgZWVU2Xc-224" style="vsdxID=225;fillColor=#bb501c;gradientColor=none;shape=stencil(nZBLDoAgDERP0z3SIyjew0SURgSD+Lu9kMZoXLhwN9O+tukAlrNpJg1SzDH4QW/URgNYgZTkjA4UkwJUgGXng+6DX1zLfmoymdXo17xh5zmRJ6Q42BWCfc2oJfdAr+Yv+AP9Cb7OJ3H/2JG1HNGz/84klThPVCc=);strokeColor=none;strokeWidth=2;spacingTop=-3;spacingBottom=-3;spacingLeft=-3;spacingRight=-3;labelBackgroundColor=none;rounded=0;html=1;whiteSpace=wrap;" parent="Aclf-5IVf1YPgZWVU2Xc-222" vertex="1">
          <mxGeometry x="7" y="13" width="10" height="1" as="geometry" />
        </mxCell>
        <mxCell id="Aclf-5IVf1YPgZWVU2Xc-225" style="vsdxID=226;fillColor=#bb501c;gradientColor=none;shape=stencil(hZHdDsIgDIWfhlsCrcx5Ped7LBkTIo6Fzb+3F0TjcKJ3p+V8TekhWI2qGSQBNk7OHuRFt5MiuCUAulfS6ckrgjXBqrNO7p099W2shyY4gzrac5hwjRxnLDDAbs+6pAIenV20G93P7CXQskgAljfjmvJVYhYbCkUe4AsAkSLmgXR3Iaj4MX25zuvz35f5dxkv3lfttDExlPn7Zwq+FRPE+g4=);strokeColor=none;strokeWidth=2;spacingTop=-3;spacingBottom=-3;spacingLeft=-3;spacingRight=-3;labelBackgroundColor=none;rounded=0;html=1;whiteSpace=wrap;" parent="Aclf-5IVf1YPgZWVU2Xc-222" vertex="1">
          <mxGeometry x="21" y="11" width="7" height="5" as="geometry" />
        </mxCell>
        <mxCell id="Aclf-5IVf1YPgZWVU2Xc-226" style="vsdxID=227;fillColor=#bb501c;gradientColor=none;shape=stencil(nZBLDoAgDERP0z3SIyjew0SURgSD+Lu9kMZoXLhwN9O+tukAlrNpJg1SzDH4QW/URgNYgZTkjA4UkwJUgGXng+6DX1zLfmoymdXo17xh5zmRJ6Q42BWCfc2oJfdAr+Yv+AP9Cb7OJ3H/2JG1HNGz/84klThPVCc=);strokeColor=none;strokeWidth=2;spacingTop=-3;spacingBottom=-3;spacingLeft=-3;spacingRight=-3;labelBackgroundColor=none;rounded=0;html=1;whiteSpace=wrap;" parent="Aclf-5IVf1YPgZWVU2Xc-222" vertex="1">
          <mxGeometry x="7" y="21" width="10" height="1" as="geometry" />
        </mxCell>
        <mxCell id="Aclf-5IVf1YPgZWVU2Xc-227" style="vsdxID=228;fillColor=#bb501c;gradientColor=none;shape=stencil(lVJLDoMgFDwNWwIPEffW3sNELKRWDGo/ty+UtLXaKt29z8xkMhnE8l6VnURA+sGao7zoalCI7RCAbpW0enATYgVieW2sPFgztlXYu9Ij/XQyZ69wDTyRYS48C8gtXMhj2wdwo9sJmJMPJLy4X9FU4CyNlZ4pU5yw32BYmObR0hlgmvxjmpL4RMS672XYq+LPZ6T1dGF9LZW5+EbkGz1xw7thtW6aUNDpf95IdwptZsUd);strokeColor=none;strokeWidth=2;spacingTop=-3;spacingBottom=-3;spacingLeft=-3;spacingRight=-3;labelBackgroundColor=none;rounded=0;html=1;whiteSpace=wrap;" parent="Aclf-5IVf1YPgZWVU2Xc-222" vertex="1">
          <mxGeometry x="21" y="19" width="5" height="5" as="geometry" />
        </mxCell>
        <mxCell id="Aclf-5IVf1YPgZWVU2Xc-228" style="vsdxID=229;fillColor=#bb501c;gradientColor=none;shape=stencil(nZBLDoAgDERP0z3SIyjew0SURgSD+Lu9kMZoXLhwN9O+tukAlrNpJg1SzDH4QW/URgNYgZTkjA4UkwJUgGXng+6DX1zLfmoymdXo17xh5zmRJ6Q42BWCfc2oJfdAr+Yv+AP9Cb7OJ3H/2JG1HNGz/84klThPVCc=);strokeColor=none;strokeWidth=2;spacingTop=-3;spacingBottom=-3;spacingLeft=-3;spacingRight=-3;labelBackgroundColor=none;rounded=0;html=1;whiteSpace=wrap;" parent="Aclf-5IVf1YPgZWVU2Xc-222" vertex="1">
          <mxGeometry x="7" y="29" width="10" height="1" as="geometry" />
        </mxCell>
        <mxCell id="Aclf-5IVf1YPgZWVU2Xc-229" style="vsdxID=230;fillColor=#bb501c;gradientColor=none;shape=stencil(lZHdDoMgDIWfprcEqE7vnXsPE3GQMTCI+3n7wcg2nZpld6flfE3pAawG2fQCOB28sydxVa2XgHvgXBkpnPJBAdaAVWedODo7mjbVfROdUZ3tJU64JY5RGhlO76nmjGT47BySXSszsZeclLsZQLfNWBCWzcz5u7MKsAWAOSnYNkD/mb5c5/X59WV+XSaIz1U7pXUKZfr+nUJopQSxfgA=);strokeColor=none;strokeWidth=2;spacingTop=-3;spacingBottom=-3;spacingLeft=-3;spacingRight=-3;labelBackgroundColor=none;rounded=0;html=1;whiteSpace=wrap;" parent="Aclf-5IVf1YPgZWVU2Xc-222" vertex="1">
          <mxGeometry x="21" y="27" width="7" height="5" as="geometry" />
        </mxCell>
        <mxCell id="Aclf-5IVf1YPgZWVU2Xc-230" style="vsdxID=231;fillColor=none;gradientColor=none;strokeColor=none;spacingTop=-3;spacingBottom=-3;spacingLeft=-3;spacingRight=-3;labelBackgroundColor=none;rounded=0;html=1;whiteSpace=wrap;" parent="Aclf-5IVf1YPgZWVU2Xc-217" vertex="1">
          <mxGeometry y="55" width="50" height="50" as="geometry" />
        </mxCell>
        <mxCell id="Aclf-5IVf1YPgZWVU2Xc-231" style="vsdxID=232;fillColor=none;gradientColor=none;strokeColor=none;spacingTop=-3;spacingBottom=-3;spacingLeft=-3;spacingRight=-3;labelBackgroundColor=none;rounded=0;html=1;whiteSpace=wrap;" parent="Aclf-5IVf1YPgZWVU2Xc-230" vertex="1">
          <mxGeometry width="50" height="50" as="geometry" />
        </mxCell>
        <mxCell id="Aclf-5IVf1YPgZWVU2Xc-232" style="vsdxID=233;fillColor=#FFFFFF;gradientColor=none;shape=stencil(nZBLDoAgDERP0z3SIyjew0SURgSD+Lu9kMZoXLhwN9O+tukAlrNpJg1SzDH4QW/URgNYgZTkjA4UkwJUgGXng+6DX1zLfmoymdXo17xh5zmRJ6Q42BWCfc2oJfdAr+Yv+AP9Cb7OJ3H/2JG1HNGz/84klThPVCc=);strokeColor=none;strokeWidth=2;spacingTop=-3;spacingBottom=-3;spacingLeft=-3;spacingRight=-3;labelBackgroundColor=none;rounded=0;html=1;whiteSpace=wrap;" parent="Aclf-5IVf1YPgZWVU2Xc-231" vertex="1">
          <mxGeometry x="1" y="1" width="48" height="48" as="geometry" />
        </mxCell>
        <mxCell id="Aclf-5IVf1YPgZWVU2Xc-233" style="vsdxID=234;fillColor=#FFFFFF;gradientColor=none;shape=stencil(rZTdDsIgDIWfhtulA416Ped7LBkTIsLC8O/tBYlOmMFhvOsOX5v2jIJINbCmpwjDYLQ60AtvDUNkizDmklHNjY0QqRGpOqXpXquTbP133zjSRUd1dhWuPm+zLNbEZWG4eWVRlKuHsPO84DLJj8rHhFe5X/ncfmI+nLcECGjIKZ2AJ20n2NkdQIYRkGNyCD89mTdYkp56lsTjv5EFf5kxxtP2ZdyLf6E2GLey40L4pX4/j7fYSv4FIPUd);strokeColor=none;strokeWidth=2;spacingTop=-3;spacingBottom=-3;spacingLeft=-3;spacingRight=-3;labelBackgroundColor=none;rounded=0;html=1;whiteSpace=wrap;" parent="Aclf-5IVf1YPgZWVU2Xc-231" vertex="1">
          <mxGeometry width="50" height="50" as="geometry" />
        </mxCell>
        <mxCell id="Aclf-5IVf1YPgZWVU2Xc-234" style="vsdxID=235;fillColor=none;gradientColor=none;strokeColor=none;spacingTop=-3;spacingBottom=-3;spacingLeft=-3;spacingRight=-3;labelBackgroundColor=none;rounded=0;html=1;whiteSpace=wrap;" parent="Aclf-5IVf1YPgZWVU2Xc-230" vertex="1">
          <mxGeometry x="2" y="2" width="46" height="46" as="geometry" />
        </mxCell>
        <mxCell id="Aclf-5IVf1YPgZWVU2Xc-235" style="vsdxID=236;fillColor=#bb501c;gradientColor=none;shape=stencil(pZbLDoMgEEW/hi1BxqKu+/iPJrWV1Kqx9vX31ZCqiIhTdiDnwmUGcAhs79mxSgln96Yur+lLnpqMwI5wLossrWXTtgjsCWzPZZ1e6vJRnFS/OnZk17qVz26Gt9KxTsHZZ9w7KDCXhRUM2AL6G/wLXm3hP1DffSIoCA0GTnlknxkCb0FIWWLnTUdY3mFohUCPUb/+jxcRjcC+AI9pEPsJkg1NArvAcITlHYbcvB4hcwNARYjZcHtKYo4whOaxfjx5Z3yWEzZzhJZvgZkxJI825C/QYzRktD/U/UW1PSwTgejXXHnx0QK0JX+BK0qORJsCR+JmnkesAG3JX9A2hh/8Wea5qg/G49OCoP2kignYfwE=);strokeColor=none;strokeWidth=2;spacingTop=-3;spacingBottom=-3;spacingLeft=-3;spacingRight=-3;labelBackgroundColor=none;rounded=0;html=1;whiteSpace=wrap;" parent="Aclf-5IVf1YPgZWVU2Xc-234" vertex="1">
          <mxGeometry width="46" height="46" as="geometry" />
        </mxCell>
        <mxCell id="Aclf-5IVf1YPgZWVU2Xc-236" style="vsdxID=237;fillColor=#bb501c;gradientColor=none;shape=stencil(lZJLDoMwDERPk20U7PBbU3oPJEKJSgkK0M/tS2RRKBUo3dnxm4k0GoZZXxedYiD6wZqreuhyqBmeGIBua2X1ME0Mc4ZZZay6WDO2Je1d4Ug33czdOTxJJ5wCxIu2QNB+JrTR7QpF4IH0x8Nv6yjmSbRPL2cv8/noBf96y4hL3Bekn/MsOHKXHFJfeBMKJDyM/0n8wFr4gsunnnEcRj0NS7cq3TRUzfV928XpiXqM+Rs=);strokeColor=none;strokeWidth=2;spacingTop=-3;spacingBottom=-3;spacingLeft=-3;spacingRight=-3;labelBackgroundColor=none;rounded=0;html=1;whiteSpace=wrap;" parent="Aclf-5IVf1YPgZWVU2Xc-234" vertex="1">
          <mxGeometry x="16" y="7" width="5" height="5" as="geometry" />
        </mxCell>
        <mxCell id="Aclf-5IVf1YPgZWVU2Xc-237" style="vsdxID=238;fillColor=#bb501c;gradientColor=none;shape=stencil(nZBLDoAgDERP0z3SIyjew0SURgSD+Lu9kMZoXLhwN9O+tukAlrNpJg1SzDH4QW/URgNYgZTkjA4UkwJUgGXng+6DX1zLfmoymdXo17xh5zmRJ6Q42BWCfc2oJfdAr+Yv+AP9Cb7OJ3H/2JG1HNGz/84klThPVCc=);strokeColor=none;strokeWidth=2;spacingTop=-3;spacingBottom=-3;spacingLeft=-3;spacingRight=-3;labelBackgroundColor=none;rounded=0;html=1;whiteSpace=wrap;" parent="Aclf-5IVf1YPgZWVU2Xc-234" vertex="1">
          <mxGeometry x="23" y="11" width="1" height="1" as="geometry" />
        </mxCell>
        <mxCell id="Aclf-5IVf1YPgZWVU2Xc-238" style="vsdxID=239;fillColor=#bb501c;gradientColor=none;shape=stencil(lZLLDoMgEEW/hi1BBsW9tf9hIlZSKgbp6+8rJUSrUeluHoeTMLkIiqGteoEoGazRV/GUtW0RnBClsmuFkXasEJQIikYbcTH63tW+7ytHuuqmH87w8u+A4oS5V5S8/SQh5NufPa5kN8NT8sNmHOfZNs0TzCBeHpZR8NrNsjCJsu+4p29FwIuT0BynfJte33tHDUEVw67EB/f449aHIRmLKWCNVMrnc75fBnIc+TBD+QE=);strokeColor=none;strokeWidth=2;spacingTop=-3;spacingBottom=-3;spacingLeft=-3;spacingRight=-3;labelBackgroundColor=none;rounded=0;html=1;whiteSpace=wrap;" parent="Aclf-5IVf1YPgZWVU2Xc-234" vertex="1">
          <mxGeometry x="25" y="7" width="5" height="5" as="geometry" />
        </mxCell>
        <mxCell id="Aclf-5IVf1YPgZWVU2Xc-239" style="vsdxID=240;fillColor=#bb501c;gradientColor=none;shape=stencil(nZBLDoAgDERP0z3SIyjew0SURgSD+Lu9kMZoXLhwN9O+tukAlrNpJg1SzDH4QW/URgNYgZTkjA4UkwJUgGXng+6DX1zLfmoymdXo17xh5zmRJ6Q42BWCfc2oJfdAr+Yv+AP9Cb7OJ3H/2JG1HNGz/84klThPVCc=);strokeColor=none;strokeWidth=2;spacingTop=-3;spacingBottom=-3;spacingLeft=-3;spacingRight=-3;labelBackgroundColor=none;rounded=0;html=1;whiteSpace=wrap;" parent="Aclf-5IVf1YPgZWVU2Xc-234" vertex="1">
          <mxGeometry x="32" y="11" width="1" height="1" as="geometry" />
        </mxCell>
        <mxCell id="Aclf-5IVf1YPgZWVU2Xc-240" style="vsdxID=241;fillColor=#bb501c;gradientColor=none;shape=stencil(lZLNDoMgEISfhitBVtGerX0PE7GQUjFI/96+UGK1NbZ422W+HZLJICgHUfccUTJYo0/8JhsrEOwRpbIT3EjrJgQVgrLVhh+NvnRN2Pvak34666t3uIc7oDhJ/RUlj/CSEPLaDwFXspvhGflgWY4Ltk5PcpT5KEbBS++U4RTWD3ZveTzY5B4fCi1wlq/Ty8R/WJNYcPo0Mo4NUf/tiBumfrVSqVDPuf7dR/cUugzVEw==);strokeColor=none;strokeWidth=2;spacingTop=-3;spacingBottom=-3;spacingLeft=-3;spacingRight=-3;labelBackgroundColor=none;rounded=0;html=1;whiteSpace=wrap;" parent="Aclf-5IVf1YPgZWVU2Xc-234" vertex="1">
          <mxGeometry x="34" y="7" width="5" height="5" as="geometry" />
        </mxCell>
        <mxCell id="Aclf-5IVf1YPgZWVU2Xc-241" style="vsdxID=242;fillColor=#bb501c;gradientColor=none;shape=stencil(nZBLDoAgDERP0z3SIyjew0SURgSD+Lu9kMZoXLhwN9O+tukAlrNpJg1SzDH4QW/URgNYgZTkjA4UkwJUgGXng+6DX1zLfmoymdXo17xh5zmRJ6Q42BWCfc2oJfdAr+Yv+AP9Cb7OJ3H/2JG1HNGz/84klThPVCc=);strokeColor=none;strokeWidth=2;spacingTop=-3;spacingBottom=-3;spacingLeft=-3;spacingRight=-3;labelBackgroundColor=none;rounded=0;html=1;whiteSpace=wrap;" parent="Aclf-5IVf1YPgZWVU2Xc-234" vertex="1">
          <mxGeometry x="41" y="11" width="1" height="1" as="geometry" />
        </mxCell>
        <mxCell id="Aclf-5IVf1YPgZWVU2Xc-242" style="vsdxID=243;fillColor=#bb501c;gradientColor=none;shape=stencil(jZLdDoMgDIWfhluCraJeO/ceJuIkc2KQ/b39ZGTzL2PctT1fT5rmECzGthoEATYarc7iLmvTEjwQANm3QkszVQRLgkWjtDhpde1r1w+VJW11UTfr8HB7Oacx2i1gTzdh7+7o4E72C5jHFPJQOGErEoFG8W96lgOsWSgIGU3SFZwE20bMg+7P9eKbX/CUZtzz5q8cZP4Rg+C9t+8jf9IxFXOuGtl1LpZLfZvDaeQyjOUL);strokeColor=none;strokeWidth=2;spacingTop=-3;spacingBottom=-3;spacingLeft=-3;spacingRight=-3;labelBackgroundColor=none;rounded=0;html=1;whiteSpace=wrap;" parent="Aclf-5IVf1YPgZWVU2Xc-234" vertex="1">
          <mxGeometry x="16" y="22" width="5" height="5" as="geometry" />
        </mxCell>
        <mxCell id="Aclf-5IVf1YPgZWVU2Xc-243" style="vsdxID=244;fillColor=#bb501c;gradientColor=none;shape=stencil(nZBLDoAgDERP0z3SIyjew0SURgSD+Lu9kMZoXLhwN9O+tukAlrNpJg1SzDH4QW/URgNYgZTkjA4UkwJUgGXng+6DX1zLfmoymdXo17xh5zmRJ6Q42BWCfc2oJfdAr+Yv+AP9Cb7OJ3H/2JG1HNGz/84klThPVCc=);strokeColor=none;strokeWidth=2;spacingTop=-3;spacingBottom=-3;spacingLeft=-3;spacingRight=-3;labelBackgroundColor=none;rounded=0;html=1;whiteSpace=wrap;" parent="Aclf-5IVf1YPgZWVU2Xc-234" vertex="1">
          <mxGeometry x="23" y="26" width="1" height="1" as="geometry" />
        </mxCell>
        <mxCell id="Aclf-5IVf1YPgZWVU2Xc-244" style="vsdxID=245;fillColor=#bb501c;gradientColor=none;shape=stencil(jZLdDoMgDIWfhluCVGX3zr2HiTjIHBjU/bz9IM3i30a4a+nXk+ZwCFSjagZJOBsnZ2/yqdtJETgTzrVR0unJVwRqAlVnnbw6O5sW+6EJZKju9hEUXriXMRZ2OHtjj90F0V6bFVoKeipT4WIrC5xm+X96GSdIAy1EMnsQLiL09uavNYnCUXxnx2LlT1pkNId08f0fRuGjdsyRaDx8scSq032PqVzP9zH0TxhhqD8=);strokeColor=none;strokeWidth=2;spacingTop=-3;spacingBottom=-3;spacingLeft=-3;spacingRight=-3;labelBackgroundColor=none;rounded=0;html=1;whiteSpace=wrap;" parent="Aclf-5IVf1YPgZWVU2Xc-234" vertex="1">
          <mxGeometry x="25" y="22" width="5" height="5" as="geometry" />
        </mxCell>
        <mxCell id="Aclf-5IVf1YPgZWVU2Xc-245" style="vsdxID=246;fillColor=#bb501c;gradientColor=none;shape=stencil(nZBLDoAgDERP0z3SIyjew0SURgSD+Lu9kMZoXLhwN9O+tukAlrNpJg1SzDH4QW/URgNYgZTkjA4UkwJUgGXng+6DX1zLfmoymdXo17xh5zmRJ6Q42BWCfc2oJfdAr+Yv+AP9Cb7OJ3H/2JG1HNGz/84klThPVCc=);strokeColor=none;strokeWidth=2;spacingTop=-3;spacingBottom=-3;spacingLeft=-3;spacingRight=-3;labelBackgroundColor=none;rounded=0;html=1;whiteSpace=wrap;" parent="Aclf-5IVf1YPgZWVU2Xc-234" vertex="1">
          <mxGeometry x="32" y="26" width="1" height="1" as="geometry" />
        </mxCell>
        <mxCell id="Aclf-5IVf1YPgZWVU2Xc-246" style="vsdxID=247;fillColor=#bb501c;gradientColor=none;shape=stencil(jZLZDoMgEEW/Zl4JMqL22dr/MBErqRWDdPv7QknjllLeZjlzM7m5gOXU1aMARiej1UU8ZGM6wCMwJodOaGlsBVgBlq3S4qzVbWh8P9aOdNVV3Z3C098dMpKiu2L05Sf005083MthAWc5KbJYmNMViYwk6W96XkdI01iQFYTnK5hHyyY0gO7fDeIbL2YfI20Oin+XUfBeO+TIn3TYYs5VK/vex3K53+bQjnyGsXoD);strokeColor=none;strokeWidth=2;spacingTop=-3;spacingBottom=-3;spacingLeft=-3;spacingRight=-3;labelBackgroundColor=none;rounded=0;html=1;whiteSpace=wrap;" parent="Aclf-5IVf1YPgZWVU2Xc-234" vertex="1">
          <mxGeometry x="34" y="22" width="5" height="5" as="geometry" />
        </mxCell>
        <mxCell id="Aclf-5IVf1YPgZWVU2Xc-247" style="vsdxID=248;fillColor=#bb501c;gradientColor=none;shape=stencil(nZBLDoAgDERP0z3SIyjew0SURgSD+Lu9kMZoXLhwN9O+tukAlrNpJg1SzDH4QW/URgNYgZTkjA4UkwJUgGXng+6DX1zLfmoymdXo17xh5zmRJ6Q42BWCfc2oJfdAr+Yv+AP9Cb7OJ3H/2JG1HNGz/84klThPVCc=);strokeColor=none;strokeWidth=2;spacingTop=-3;spacingBottom=-3;spacingLeft=-3;spacingRight=-3;labelBackgroundColor=none;rounded=0;html=1;whiteSpace=wrap;" parent="Aclf-5IVf1YPgZWVU2Xc-234" vertex="1">
          <mxGeometry x="41" y="26" width="1" height="1" as="geometry" />
        </mxCell>
        <mxCell id="Aclf-5IVf1YPgZWVU2Xc-248" style="vsdxID=249;fillColor=#bb501c;gradientColor=none;shape=stencil(jZLdDoMgDIWfhluCLSBeu+09TMRJ5sSg+3v7ycgyfzLl7rT9etI0h2De10WnCbB+cPaiH6YcaoIHAmDaWjszjIrgkWBeWafPzt7aMtRd4UmvrvbuHZ5hL5OUo98C9god9qlOAW5MO4Elp5DFwoLNSEwow/80Ak14rDWLBUFRkc5griioWOeEbXivL97EF++QggrY+HRKlYw3/w6j4LX3zlN2MjKKX7oq0zQhnNP5Mo1jKyQZj28=);strokeColor=none;strokeWidth=2;spacingTop=-3;spacingBottom=-3;spacingLeft=-3;spacingRight=-3;labelBackgroundColor=none;rounded=0;html=1;whiteSpace=wrap;" parent="Aclf-5IVf1YPgZWVU2Xc-234" vertex="1">
          <mxGeometry x="16" y="36" width="5" height="6" as="geometry" />
        </mxCell>
        <mxCell id="Aclf-5IVf1YPgZWVU2Xc-249" style="vsdxID=250;fillColor=#bb501c;gradientColor=none;shape=stencil(nZBLDoAgDERP0z3SIyjew0SURgSD+Lu9kMZoXLhwN9O+tukAlrNpJg1SzDH4QW/URgNYgZTkjA4UkwJUgGXng+6DX1zLfmoymdXo17xh5zmRJ6Q42BWCfc2oJfdAr+Yv+AP9Cb7OJ3H/2JG1HNGz/84klThPVCc=);strokeColor=none;strokeWidth=2;spacingTop=-3;spacingBottom=-3;spacingLeft=-3;spacingRight=-3;labelBackgroundColor=none;rounded=0;html=1;whiteSpace=wrap;" parent="Aclf-5IVf1YPgZWVU2Xc-234" vertex="1">
          <mxGeometry x="23" y="41" width="1" height="1" as="geometry" />
        </mxCell>
        <mxCell id="Aclf-5IVf1YPgZWVU2Xc-250" style="vsdxID=251;fillColor=#bb501c;gradientColor=none;shape=stencil(jZLbDoMgDIafhlsCrSj3zr2HiTjJnBh0p7efpFnmITruWvj6hZSfYT40ZW8YiGH07mqethobhicGYLvGeDtOFcOCYV47by7e3buK+r4MZKhu7hEML5qTQoQZEG/qqTsT2tpuhqYZ12ksrJZalFzgPo3AZRKrRq6yaHYjTjQHvT+wfPZ3O5HuQ3y1kVRxBft0JnmC8fL1Nx7CW/efpRyGZCp+4apt21I25/frME5HFGQsPg==);strokeColor=none;strokeWidth=2;spacingTop=-3;spacingBottom=-3;spacingLeft=-3;spacingRight=-3;labelBackgroundColor=none;rounded=0;html=1;whiteSpace=wrap;" parent="Aclf-5IVf1YPgZWVU2Xc-234" vertex="1">
          <mxGeometry x="25" y="36" width="5" height="6" as="geometry" />
        </mxCell>
        <mxCell id="Aclf-5IVf1YPgZWVU2Xc-251" style="vsdxID=252;fillColor=#bb501c;gradientColor=none;shape=stencil(nZBLDoAgDERP0z3SIyjew0SURgSD+Lu9kMZoXLhwN9O+tukAlrNpJg1SzDH4QW/URgNYgZTkjA4UkwJUgGXng+6DX1zLfmoymdXo17xh5zmRJ6Q42BWCfc2oJfdAr+Yv+AP9Cb7OJ3H/2JG1HNGz/84klThPVCc=);strokeColor=none;strokeWidth=2;spacingTop=-3;spacingBottom=-3;spacingLeft=-3;spacingRight=-3;labelBackgroundColor=none;rounded=0;html=1;whiteSpace=wrap;" parent="Aclf-5IVf1YPgZWVU2Xc-234" vertex="1">
          <mxGeometry x="32" y="41" width="1" height="1" as="geometry" />
        </mxCell>
        <mxCell id="Aclf-5IVf1YPgZWVU2Xc-252" style="vsdxID=253;fillColor=#bb501c;gradientColor=none;shape=stencil(lZLdDoIwDIWfZrfLaNmY14jvQcKQRWRkgD9vL3Mx8hNh3p22X0+a5hBMuypvFQHW9dZc1F0XfUXwSAB0Uymr+1ERzAimpbHqbM3QFL5uc0c6dTU35/DwewdBY3RbwJ6+w97VycO1biawSKgUoTBnMxIjyvA3jUCjONSahYIgKU9mcCwpyFDniG14ry/exBfvEJxy+OfTm+afYRC89t55yk5GRvFNV6nr2odzOl+mcWz5JGP2Ag==);strokeColor=none;strokeWidth=2;spacingTop=-3;spacingBottom=-3;spacingLeft=-3;spacingRight=-3;labelBackgroundColor=none;rounded=0;html=1;whiteSpace=wrap;" parent="Aclf-5IVf1YPgZWVU2Xc-234" vertex="1">
          <mxGeometry x="34" y="36" width="5" height="6" as="geometry" />
        </mxCell>
        <mxCell id="Aclf-5IVf1YPgZWVU2Xc-253" style="vsdxID=254;fillColor=#bb501c;gradientColor=none;shape=stencil(nZBLDoAgDERP0z3SIyjew0SURgSD+Lu9kMZoXLhwN9O+tukAlrNpJg1SzDH4QW/URgNYgZTkjA4UkwJUgGXng+6DX1zLfmoymdXo17xh5zmRJ6Q42BWCfc2oJfdAr+Yv+AP9Cb7OJ3H/2JG1HNGz/84klThPVCc=);strokeColor=none;strokeWidth=2;spacingTop=-3;spacingBottom=-3;spacingLeft=-3;spacingRight=-3;labelBackgroundColor=none;rounded=0;html=1;whiteSpace=wrap;" parent="Aclf-5IVf1YPgZWVU2Xc-234" vertex="1">
          <mxGeometry x="41" y="41" width="1" height="1" as="geometry" />
        </mxCell>
        <mxCell id="Aclf-5IVf1YPgZWVU2Xc-254" style="vsdxID=255;fillColor=none;gradientColor=none;strokeColor=none;spacingTop=-3;spacingBottom=-3;spacingLeft=-3;spacingRight=-3;labelBackgroundColor=none;rounded=0;html=1;whiteSpace=wrap;" parent="1" vertex="1">
          <mxGeometry x="1381.5" y="309" width="137" height="108" as="geometry" />
        </mxCell>
        <mxCell id="Aclf-5IVf1YPgZWVU2Xc-255" style="vsdxID=256;fillColor=none;gradientColor=none;strokeColor=none;spacingTop=-3;spacingBottom=-3;spacingLeft=-3;spacingRight=-3;labelBackgroundColor=none;rounded=0;html=1;whiteSpace=wrap;" parent="Aclf-5IVf1YPgZWVU2Xc-254" vertex="1">
          <mxGeometry width="71" height="71" as="geometry" />
        </mxCell>
        <mxCell id="Aclf-5IVf1YPgZWVU2Xc-256" style="vsdxID=257;fillColor=none;gradientColor=none;strokeColor=none;spacingTop=-3;spacingBottom=-3;spacingLeft=-3;spacingRight=-3;labelBackgroundColor=none;rounded=0;html=1;whiteSpace=wrap;" parent="Aclf-5IVf1YPgZWVU2Xc-255" vertex="1">
          <mxGeometry width="71" height="71" as="geometry" />
        </mxCell>
        <mxCell id="Aclf-5IVf1YPgZWVU2Xc-257" style="vsdxID=258;fillColor=#FFFFFF;gradientColor=none;shape=stencil(pVbbduMgDPwav+qAQFyeu+1/9GzSjc9mkx4n7aZ/X7IGDHJNneybo8wwGiEEnXo47Z5ftx2K03k4/t7+7TfnXad+dIj9Ybcd+nP46tRjpx5ejsP213B8O2zG36/PV+T168/x/brCZeQ5CSivLBQfY8R70P8CTyN+3x/aeARLDYID6W4hEIGkikAeHJaEn2/D6EFGgAbUkRJDNiZ5wQiRQBghMeQEeBtRagxpC5SSVTn/trhG0FiL+2mZpK8soK31c6GzvFJgdC3Pd4OrB4pQTH1aN4kXKS6Ly2S0FBe+pY4FZ/KOzLs0IAyrfcjI1fpybt6EJJv6MrQSc280GGL6CJLZJwdeMv0CFUOkQNrlThV1l94C1gZILYPLXBYIX5SCt6EWU5ExFzm3S2oODZq1QkB5thXoQcmmftHgKSRn+qjBUa0vQM1OAVcXzSMQUvO1sqhVtQPrmWvwTJa+NO2bpsPgIaqlw1nLK2NGcdPKABLTL+aeys7iHFk5Wk3q/aXZTfhfeLEMDrPC3o2VwUnjOPiia+8lCHCNUlLRvatOqDP58lhJKM5nvjhuEghXiDaNmSHYiPGp61aubxBc6+afGQhDtJ4JjDCraThiujEi55vwDcEX43/htv6WEG6wlkIxW+4kpH1Z+Zy6Ec7fB+Fjeuq99Pv9+FIs/+dPwxAan5Xq8RM=);strokeColor=none;strokeWidth=2;spacingTop=-3;spacingBottom=-3;spacingLeft=-3;spacingRight=-3;labelBackgroundColor=none;rounded=0;html=1;whiteSpace=wrap;" parent="Aclf-5IVf1YPgZWVU2Xc-256" vertex="1">
          <mxGeometry x="1" y="1" width="69" height="69" as="geometry" />
        </mxCell>
        <mxCell id="Aclf-5IVf1YPgZWVU2Xc-258" style="vsdxID=259;fillColor=#FFFFFF;gradientColor=none;shape=stencil(rVnbchs3DP0avWJIgtfnNPmPTO3Umrp2RnZS5+9DVeINWIFLu2/y+pwFCQIHIPaAn14evn6/Pxj18np6/vv+3+Pd68MB/zgYc3x6uD8dX/OvA34+4Kdvz6f7v07PP57uLn9//3pGnn/98/zz/Ia3Cy95COHMMurX5YmBZP978OWCfzw+iXgdwDuBgGD8xwgRHN7GO4Q04m0gW/jzx+myZ80pmnLUm+Eow1HIUddHNoIRXBgTBDsueEJAiKPPrRFdGD2c/9cT1MqROgGd3+30gPYKTBIIFvR4Po6eD1mPAhxX7zQEL0SABedkAouAjqIpp0VAhzIchRyFuxacQzyOEZA06LhCiAaUZCEA+o8RzmEhEPL7wsfwKAZ99ohbwW8EgSc+3SEDPhQvtSDQkErAXx8FLgNZGUxBXR/FIHq8Z9wg0AXntI9mXHCyYPW4YIxgzbjgfDY2jAtGBzqNC26oG/bRAvFX/2JTQWqHeYRgFs0bCwnZ9gPZvk6AJGmjApdG+7kI4Wjex+LcG+a1b34t4YKlNDXzrqVqiaBa8Jr5DtU0Y9w+CRfQY7Ss4llVHPH9inaW0Z5SIpSLaO82U2Nv4zxIFUUl2Taqer7Y1lUgqm0TwIXRtmGpm1dj42iblleWCB1FE0pLhA5kGOj9xq0quiYYzy2FJ8arHPa9C4YD8Xo5mlvNFo4yzgg7VBa5aG2UWowtuVqppWljJ/2qAj82E1RlWJkiebOKX+2fKZ7056kK3BW/1MlJjRxbuQAOqcXcO8CyTzhe9jnHpxJPO3c6wWdVX3l/bjRwgCNthVhOeFBlRS0naCVzrtXIkhNcQTLKklI2z0kFlih3J8lFQjQrpLXTb/plqW7T28BGFfdEubvXlqIRmoPKI82aiKz4NtGtS7Z1dh/3O9WijKIdDLY0rMZzqSN+t068CZnWvuzCqw+A5RvlCJ7cVgi4xum+PU7wvRdvEDYOsR5P6cMUO0EkJ8g6sNwtjKfnaZZv9DuOZE3klddoIC1H4v0fajY1SDPzOffpnbVxWteBTQ5MRdHg7Zt0pKhb9gNE2n4nJlo222fbZ7elrjsptyXafpN2tmP8XwSmiqbJSTnfzaEAbfADbyp7hS/xJV9gc9UxpOrIvVhemzMrhBCrxr+bgOIsboMgX4I5QSupZ2FbFuG5H9ILb8/RrFfezuCTzXJClg+URqGMEOROhG94Rsj6FVYIfHi5TJhseoNgixs2CV5VEdxXc/IC7BJegyE1Kt98hXEdb1AnI09uwUtZwPpTP3Gpay3XlWDlQwtUPCcWzhpPpm/yvLFk1p6RM3/5ZJaRl49jGuCE4ADHkED5hLlYzyyoWiLqSH6mvXHcw2zozy1Mw5qI6aTFdKmNH3cRcirr8eD0xK2cMHErI+TLhGQhC56KSwQHfgnfphbvJUz2zAmTSTrDy0VtYd4gg/OP9tnx2/Hx8fLVsv8//UyZH10+ceLn3w==);strokeColor=none;strokeWidth=2;spacingTop=-3;spacingBottom=-3;spacingLeft=-3;spacingRight=-3;labelBackgroundColor=none;rounded=0;html=1;whiteSpace=wrap;" parent="Aclf-5IVf1YPgZWVU2Xc-256" vertex="1">
          <mxGeometry width="71" height="71" as="geometry" />
        </mxCell>
        <mxCell id="Aclf-5IVf1YPgZWVU2Xc-259" style="vsdxID=260;fillColor=none;gradientColor=none;strokeColor=none;spacingTop=-3;spacingBottom=-3;spacingLeft=-3;spacingRight=-3;labelBackgroundColor=none;rounded=0;html=1;whiteSpace=wrap;" parent="Aclf-5IVf1YPgZWVU2Xc-255" vertex="1">
          <mxGeometry x="2" y="2" width="67" height="67" as="geometry" />
        </mxCell>
        <mxCell id="Aclf-5IVf1YPgZWVU2Xc-260" style="vsdxID=262;fillColor=#2c5967;gradientColor=none;shape=stencil(rVhbctswDDyNfzEEwOd32t4j0ziNp2mccZI2vX3pWuIDtCDn8SfTABcEF8BKG756urt+3G7IPD0f9j+3f3Y3z3cb/rIh2j3cbQ+75/y04a8bvrrdH7Y/DvuXh5vT78fro+Xx6df+93GH15MfGnP0IfN3+u0g2f8r307m97sHxdwA47J1tMD8IXuG4JbtE4OlN9g7C9TvbwliF9D3l8MpPTi5MKQZYlriCDjt8krFitJkNS1xCcW88mRF4P1kNS1RAp+UgBuPBQcZsA3gXR+wBeP7ePMRnO/jNX2sOXxn+1iNBtvaY78jjRafg5kPFryKiQGc6zERgcS9oK00qvcy5WwBGxkwCF7Y+WoqfqaXwLdn8Gk4t80co2Ve9EX4JmOHEKNS4E0sCw5DKmi4ehfBWpGKJmHTkm8SVq8CsU9FkD1jwPfAPXwsVV3giYAE41NJW2UgDhWa1gqOqdY+Sp/K/lzJAj4Np88FUPrTxfAefFyFz6zjKPBDTdLMOg8m9vhRb1Ctx4LD0FERsI83lhvWGqpvOMXFqjTnecmr9B4nRvJzPS6NJIMfc5hn5vmA6l29z/w4M7UDu5qidzokK3qhmFEsHfLUQp0C41CtPi0HihWNVgoHJL44Yf7b6wGLK3XgepLn/qbpjBjB9LfkUSVNKuOmIKwopQAhdA6sF2o+A/UOWfpoEaGcA7bU3xINKOkOZ2ggO6cdB8eZVmDPtoJiddkMzUTvtaBe14P5G5XyR8172Z4vj0VZh/46B11oimotc8LMGHVMeUgi2UmolTMqLanI7VRDsWedjrLUB9g6QC9CzdeZhDhMoxAmrHmcliJXeT+rklhG5QzuE3DQ8LP0jEIg+hE/W5EQxS6O+I3VzHddxuVuEPsptObA8tXI6fXODkLfILxRGZ6lQhAhKYMub4+9NUtJLhwqP4rkiUHNkOvt9fO2d3Bhf2td5iocx1xLFCqHT6K/YSpidaYA6yOi9VhwGGqmEcnNew6JmsnVIDlbBVztElHUq1tBb11w2JdGo08Fb96IF8Gthcg9OI6KJPPCiVHEcvyvi2IbhneYrAmsYEooVV3hm9Ewi/igjfr1WZIf6vej2939/enzU/u//N6Ul07fqvjrPw==);strokeColor=none;strokeWidth=2;spacingTop=-3;spacingBottom=-3;spacingLeft=-3;spacingRight=-3;labelBackgroundColor=none;rounded=0;html=1;whiteSpace=wrap;" parent="Aclf-5IVf1YPgZWVU2Xc-259" vertex="1">
          <mxGeometry width="67" height="67" as="geometry" />
        </mxCell>
        <mxCell id="Aclf-5IVf1YPgZWVU2Xc-261" value="&lt;p style=&quot;align:left;margin-left:0;margin-right:0;margin-top:0px;margin-bottom:0px;text-indent:0;valign:middle;direction:ltr;&quot;&gt;&lt;font style=&quot;font-size:16px;font-family:OracleSans-Regular;color:#100f0e;direction:ltr;letter-spacing:0px;line-height:120%;opacity:1&quot;&gt;Load&lt;br/&gt;&lt;/font&gt;&lt;/p&gt;" style="verticalAlign=middle;align=left;vsdxID=263;fillColor=none;gradientColor=none;shape=stencil(nZBLDoAgDERP0z3SIyjew0SURgSD+Lu9kMZoXLhwN9O+tukAlrNpJg1SzDH4QW/URgNYgZTkjA4UkwJUgGXng+6DX1zLfmoymdXo17xh5zmRJ6Q42BWCfc2oJfdAr+Yv+AP9Cb7OJ3H/2JG1HNGz/84klThPVCc=);strokeColor=none;spacingTop=-3;spacingBottom=-3;spacingLeft=-3;spacingRight=-3;labelBackgroundColor=none;rounded=0;html=1;whiteSpace=wrap;" parent="Aclf-5IVf1YPgZWVU2Xc-254" vertex="1">
          <mxGeometry x="16" y="70" width="67" height="20" as="geometry" />
        </mxCell>
        <mxCell id="Aclf-5IVf1YPgZWVU2Xc-262" value="&lt;p style=&quot;align:left;margin-left:0;margin-right:0;margin-top:0px;margin-bottom:0px;text-indent:0;valign:middle;direction:ltr;&quot;&gt;&lt;font style=&quot;font-size:16px;font-family:OracleSans-Regular;color:#100f0e;direction:ltr;letter-spacing:0px;line-height:120%;opacity:1&quot;&gt;Balancer&lt;br/&gt;&lt;/font&gt;&lt;/p&gt;" style="verticalAlign=middle;align=left;vsdxID=264;fillColor=none;gradientColor=none;shape=stencil(nZBLDoAgDERP0z3SIyjew0SURgSD+Lu9kMZoXLhwN9O+tukAlrNpJg1SzDH4QW/URgNYgZTkjA4UkwJUgGXng+6DX1zLfmoymdXo17xh5zmRJ6Q42BWCfc2oJfdAr+Yv+AP9Cb7OJ3H/2JG1HNGz/84klThPVCc=);strokeColor=none;spacingTop=-3;spacingBottom=-3;spacingLeft=-3;spacingRight=-3;labelBackgroundColor=none;rounded=0;html=1;whiteSpace=wrap;" parent="Aclf-5IVf1YPgZWVU2Xc-254" vertex="1">
          <mxGeometry x="2" y="87" width="134" height="20" as="geometry" />
        </mxCell>
        <mxCell id="G_j2vgRkdE4tbqR_UgK8-80" value="" style="dashed=0;outlineConnect=0;html=1;align=center;labelPosition=center;verticalLabelPosition=bottom;verticalAlign=top;shape=mxgraph.weblogos.oracle;fillColor=#FF0000;strokeColor=none;rounded=0;spacingLeft=-3;spacingRight=-3;spacingTop=-3;spacingBottom=-3;fontFamily=Helvetica;fontSize=12;fontColor=default;labelBackgroundColor=none;" vertex="1" parent="1">
          <mxGeometry x="954" y="170" width="96" height="30" as="geometry" />
        </mxCell>
        <mxCell id="G_j2vgRkdE4tbqR_UgK8-82" value="&lt;b&gt;&lt;font style=&quot;font-size: 14px;&quot;&gt;VCN&lt;/font&gt;&lt;/b&gt;" style="text;html=1;align=center;verticalAlign=middle;whiteSpace=wrap;rounded=0;fontFamily=Helvetica;fontSize=12;fontColor=default;labelBackgroundColor=none;" vertex="1" parent="1">
          <mxGeometry x="990" y="267" width="60" height="30" as="geometry" />
        </mxCell>
        <mxCell id="G_j2vgRkdE4tbqR_UgK8-86" value="&lt;b&gt;Subnet CP&lt;/b&gt;" style="text;html=1;align=center;verticalAlign=middle;whiteSpace=wrap;rounded=0;fontFamily=Helvetica;fontSize=12;fontColor=default;labelBackgroundColor=none;" vertex="1" parent="1">
          <mxGeometry x="1052" y="494" width="90" height="30" as="geometry" />
        </mxCell>
        <mxCell id="G_j2vgRkdE4tbqR_UgK8-88" value="&lt;b&gt;Subnet NP&lt;span style=&quot;color: rgba(0, 0, 0, 0); font-family: monospace; font-size: 0px; text-align: start; text-wrap: nowrap;&quot;&gt;%3CmxGraphModel%3E%3Croot%3E%3CmxCell%20id%3D%220%22%2F%3E%3CmxCell%20id%3D%221%22%20parent%3D%220%22%2F%3E%3CmxCell%20id%3D%222%22%20value%3D%22SUBNET%20CP%22%20style%3D%22text%3Bhtml%3D1%3Balign%3Dcenter%3BverticalAlign%3Dmiddle%3BwhiteSpace%3Dwrap%3Brounded%3D0%3BfontFamily%3DHelvetica%3BfontSize%3D12%3BfontColor%3Ddefault%3BlabelBackgroundColor%3Dnone%3B%22%20vertex%3D%221%22%20parent%3D%221%22%3E%3CmxGeometry%20x%3D%221060%22%20y%3D%22317%22%20width%3D%2290%22%20height%3D%2230%22%20as%3D%22geometry%22%2F%3E%3C%2FmxCell%3E%3C%2Froot%3E%3C%2FmxGraphModel%3E&lt;/span&gt;&lt;/b&gt;" style="text;html=1;align=center;verticalAlign=middle;whiteSpace=wrap;rounded=0;fontFamily=Helvetica;fontSize=12;fontColor=default;labelBackgroundColor=none;" vertex="1" parent="1">
          <mxGeometry x="1046" y="632" width="90" height="30" as="geometry" />
        </mxCell>
        <mxCell id="G_j2vgRkdE4tbqR_UgK8-90" value="" style="rounded=0;whiteSpace=wrap;html=1;align=left;verticalAlign=middle;spacingLeft=-3;spacingRight=-3;spacingTop=-3;spacingBottom=-3;fontFamily=Helvetica;fontSize=12;fontColor=default;labelBackgroundColor=none;fillColor=none;gradientColor=none;dashed=1;dashPattern=8 8;strokeColor=#CC6600;" vertex="1" parent="1">
          <mxGeometry x="1060" y="297" width="800" height="120" as="geometry" />
        </mxCell>
        <mxCell id="G_j2vgRkdE4tbqR_UgK8-124" style="vsdxID=255;fillColor=none;gradientColor=none;strokeColor=none;spacingTop=-3;spacingBottom=-3;spacingLeft=-3;spacingRight=-3;labelBackgroundColor=none;rounded=0;html=1;whiteSpace=wrap;" vertex="1" parent="1">
          <mxGeometry x="1523" y="309" width="137" height="108" as="geometry" />
        </mxCell>
        <mxCell id="G_j2vgRkdE4tbqR_UgK8-125" style="vsdxID=256;fillColor=none;gradientColor=none;strokeColor=none;spacingTop=-3;spacingBottom=-3;spacingLeft=-3;spacingRight=-3;labelBackgroundColor=none;rounded=0;html=1;whiteSpace=wrap;" vertex="1" parent="G_j2vgRkdE4tbqR_UgK8-124">
          <mxGeometry width="71" height="71" as="geometry" />
        </mxCell>
        <mxCell id="G_j2vgRkdE4tbqR_UgK8-126" style="vsdxID=257;fillColor=none;gradientColor=none;strokeColor=none;spacingTop=-3;spacingBottom=-3;spacingLeft=-3;spacingRight=-3;labelBackgroundColor=none;rounded=0;html=1;whiteSpace=wrap;" vertex="1" parent="G_j2vgRkdE4tbqR_UgK8-125">
          <mxGeometry width="71" height="71" as="geometry" />
        </mxCell>
        <mxCell id="G_j2vgRkdE4tbqR_UgK8-127" style="vsdxID=258;fillColor=#FFFFFF;gradientColor=none;shape=stencil(pVbbduMgDPwav+qAQFyeu+1/9GzSjc9mkx4n7aZ/X7IGDHJNneybo8wwGiEEnXo47Z5ftx2K03k4/t7+7TfnXad+dIj9Ybcd+nP46tRjpx5ejsP213B8O2zG36/PV+T168/x/brCZeQ5CSivLBQfY8R70P8CTyN+3x/aeARLDYID6W4hEIGkikAeHJaEn2/D6EFGgAbUkRJDNiZ5wQiRQBghMeQEeBtRagxpC5SSVTn/trhG0FiL+2mZpK8soK31c6GzvFJgdC3Pd4OrB4pQTH1aN4kXKS6Ly2S0FBe+pY4FZ/KOzLs0IAyrfcjI1fpybt6EJJv6MrQSc280GGL6CJLZJwdeMv0CFUOkQNrlThV1l94C1gZILYPLXBYIX5SCt6EWU5ExFzm3S2oODZq1QkB5thXoQcmmftHgKSRn+qjBUa0vQM1OAVcXzSMQUvO1sqhVtQPrmWvwTJa+NO2bpsPgIaqlw1nLK2NGcdPKABLTL+aeys7iHFk5Wk3q/aXZTfhfeLEMDrPC3o2VwUnjOPiia+8lCHCNUlLRvatOqDP58lhJKM5nvjhuEghXiDaNmSHYiPGp61aubxBc6+afGQhDtJ4JjDCraThiujEi55vwDcEX43/htv6WEG6wlkIxW+4kpH1Z+Zy6Ec7fB+Fjeuq99Pv9+FIs/+dPwxAan5Xq8RM=);strokeColor=none;strokeWidth=2;spacingTop=-3;spacingBottom=-3;spacingLeft=-3;spacingRight=-3;labelBackgroundColor=none;rounded=0;html=1;whiteSpace=wrap;" vertex="1" parent="G_j2vgRkdE4tbqR_UgK8-126">
          <mxGeometry x="1" y="1" width="69" height="69" as="geometry" />
        </mxCell>
        <mxCell id="G_j2vgRkdE4tbqR_UgK8-128" style="vsdxID=259;fillColor=#FFFFFF;gradientColor=none;shape=stencil(rVnbchs3DP0avWJIgtfnNPmPTO3Umrp2RnZS5+9DVeINWIFLu2/y+pwFCQIHIPaAn14evn6/Pxj18np6/vv+3+Pd68MB/zgYc3x6uD8dX/OvA34+4Kdvz6f7v07PP57uLn9//3pGnn/98/zz/Ia3Cy95COHMMurX5YmBZP978OWCfzw+iXgdwDuBgGD8xwgRHN7GO4Q04m0gW/jzx+myZ80pmnLUm+Eow1HIUddHNoIRXBgTBDsueEJAiKPPrRFdGD2c/9cT1MqROgGd3+30gPYKTBIIFvR4Po6eD1mPAhxX7zQEL0SABedkAouAjqIpp0VAhzIchRyFuxacQzyOEZA06LhCiAaUZCEA+o8RzmEhEPL7wsfwKAZ99ohbwW8EgSc+3SEDPhQvtSDQkErAXx8FLgNZGUxBXR/FIHq8Z9wg0AXntI9mXHCyYPW4YIxgzbjgfDY2jAtGBzqNC26oG/bRAvFX/2JTQWqHeYRgFs0bCwnZ9gPZvk6AJGmjApdG+7kI4Wjex+LcG+a1b34t4YKlNDXzrqVqiaBa8Jr5DtU0Y9w+CRfQY7Ss4llVHPH9inaW0Z5SIpSLaO82U2Nv4zxIFUUl2Taqer7Y1lUgqm0TwIXRtmGpm1dj42iblleWCB1FE0pLhA5kGOj9xq0quiYYzy2FJ8arHPa9C4YD8Xo5mlvNFo4yzgg7VBa5aG2UWowtuVqppWljJ/2qAj82E1RlWJkiebOKX+2fKZ7056kK3BW/1MlJjRxbuQAOqcXcO8CyTzhe9jnHpxJPO3c6wWdVX3l/bjRwgCNthVhOeFBlRS0naCVzrtXIkhNcQTLKklI2z0kFlih3J8lFQjQrpLXTb/plqW7T28BGFfdEubvXlqIRmoPKI82aiKz4NtGtS7Z1dh/3O9WijKIdDLY0rMZzqSN+t068CZnWvuzCqw+A5RvlCJ7cVgi4xum+PU7wvRdvEDYOsR5P6cMUO0EkJ8g6sNwtjKfnaZZv9DuOZE3klddoIC1H4v0fajY1SDPzOffpnbVxWteBTQ5MRdHg7Zt0pKhb9gNE2n4nJlo222fbZ7elrjsptyXafpN2tmP8XwSmiqbJSTnfzaEAbfADbyp7hS/xJV9gc9UxpOrIvVhemzMrhBCrxr+bgOIsboMgX4I5QSupZ2FbFuG5H9ILb8/RrFfezuCTzXJClg+URqGMEOROhG94Rsj6FVYIfHi5TJhseoNgixs2CV5VEdxXc/IC7BJegyE1Kt98hXEdb1AnI09uwUtZwPpTP3Gpay3XlWDlQwtUPCcWzhpPpm/yvLFk1p6RM3/5ZJaRl49jGuCE4ADHkED5hLlYzyyoWiLqSH6mvXHcw2zozy1Mw5qI6aTFdKmNH3cRcirr8eD0xK2cMHErI+TLhGQhC56KSwQHfgnfphbvJUz2zAmTSTrDy0VtYd4gg/OP9tnx2/Hx8fLVsv8//UyZH10+ceLn3w==);strokeColor=none;strokeWidth=2;spacingTop=-3;spacingBottom=-3;spacingLeft=-3;spacingRight=-3;labelBackgroundColor=none;rounded=0;html=1;whiteSpace=wrap;" vertex="1" parent="G_j2vgRkdE4tbqR_UgK8-126">
          <mxGeometry width="71" height="71" as="geometry" />
        </mxCell>
        <mxCell id="G_j2vgRkdE4tbqR_UgK8-129" style="vsdxID=260;fillColor=none;gradientColor=none;strokeColor=none;spacingTop=-3;spacingBottom=-3;spacingLeft=-3;spacingRight=-3;labelBackgroundColor=none;rounded=0;html=1;whiteSpace=wrap;" vertex="1" parent="G_j2vgRkdE4tbqR_UgK8-125">
          <mxGeometry x="2" y="2" width="67" height="67" as="geometry" />
        </mxCell>
        <mxCell id="G_j2vgRkdE4tbqR_UgK8-130" style="vsdxID=262;fillColor=#2c5967;gradientColor=none;shape=stencil(rVhbctswDDyNfzEEwOd32t4j0ziNp2mccZI2vX3pWuIDtCDn8SfTABcEF8BKG756urt+3G7IPD0f9j+3f3Y3z3cb/rIh2j3cbQ+75/y04a8bvrrdH7Y/DvuXh5vT78fro+Xx6df+93GH15MfGnP0IfN3+u0g2f8r307m97sHxdwA47J1tMD8IXuG4JbtE4OlN9g7C9TvbwliF9D3l8MpPTi5MKQZYlriCDjt8krFitJkNS1xCcW88mRF4P1kNS1RAp+UgBuPBQcZsA3gXR+wBeP7ePMRnO/jNX2sOXxn+1iNBtvaY78jjRafg5kPFryKiQGc6zERgcS9oK00qvcy5WwBGxkwCF7Y+WoqfqaXwLdn8Gk4t80co2Ve9EX4JmOHEKNS4E0sCw5DKmi4ehfBWpGKJmHTkm8SVq8CsU9FkD1jwPfAPXwsVV3giYAE41NJW2UgDhWa1gqOqdY+Sp/K/lzJAj4Np88FUPrTxfAefFyFz6zjKPBDTdLMOg8m9vhRb1Ctx4LD0FERsI83lhvWGqpvOMXFqjTnecmr9B4nRvJzPS6NJIMfc5hn5vmA6l29z/w4M7UDu5qidzokK3qhmFEsHfLUQp0C41CtPi0HihWNVgoHJL44Yf7b6wGLK3XgepLn/qbpjBjB9LfkUSVNKuOmIKwopQAhdA6sF2o+A/UOWfpoEaGcA7bU3xINKOkOZ2ggO6cdB8eZVmDPtoJiddkMzUTvtaBe14P5G5XyR8172Z4vj0VZh/46B11oimotc8LMGHVMeUgi2UmolTMqLanI7VRDsWedjrLUB9g6QC9CzdeZhDhMoxAmrHmcliJXeT+rklhG5QzuE3DQ8LP0jEIg+hE/W5EQxS6O+I3VzHddxuVuEPsptObA8tXI6fXODkLfILxRGZ6lQhAhKYMub4+9NUtJLhwqP4rkiUHNkOvt9fO2d3Bhf2td5iocx1xLFCqHT6K/YSpidaYA6yOi9VhwGGqmEcnNew6JmsnVIDlbBVztElHUq1tBb11w2JdGo08Fb96IF8Gthcg9OI6KJPPCiVHEcvyvi2IbhneYrAmsYEooVV3hm9Ewi/igjfr1WZIf6vej2939/enzU/u//N6Ul07fqvjrPw==);strokeColor=none;strokeWidth=2;spacingTop=-3;spacingBottom=-3;spacingLeft=-3;spacingRight=-3;labelBackgroundColor=none;rounded=0;html=1;whiteSpace=wrap;" vertex="1" parent="G_j2vgRkdE4tbqR_UgK8-129">
          <mxGeometry width="67" height="67" as="geometry" />
        </mxCell>
        <mxCell id="G_j2vgRkdE4tbqR_UgK8-131" value="&lt;p style=&quot;align:left;margin-left:0;margin-right:0;margin-top:0px;margin-bottom:0px;text-indent:0;valign:middle;direction:ltr;&quot;&gt;&lt;font style=&quot;font-size:16px;font-family:OracleSans-Regular;color:#100f0e;direction:ltr;letter-spacing:0px;line-height:120%;opacity:1&quot;&gt;Load&lt;br/&gt;&lt;/font&gt;&lt;/p&gt;" style="verticalAlign=middle;align=left;vsdxID=263;fillColor=none;gradientColor=none;shape=stencil(nZBLDoAgDERP0z3SIyjew0SURgSD+Lu9kMZoXLhwN9O+tukAlrNpJg1SzDH4QW/URgNYgZTkjA4UkwJUgGXng+6DX1zLfmoymdXo17xh5zmRJ6Q42BWCfc2oJfdAr+Yv+AP9Cb7OJ3H/2JG1HNGz/84klThPVCc=);strokeColor=none;spacingTop=-3;spacingBottom=-3;spacingLeft=-3;spacingRight=-3;labelBackgroundColor=none;rounded=0;html=1;whiteSpace=wrap;" vertex="1" parent="G_j2vgRkdE4tbqR_UgK8-124">
          <mxGeometry x="16" y="70" width="67" height="20" as="geometry" />
        </mxCell>
        <mxCell id="G_j2vgRkdE4tbqR_UgK8-132" value="&lt;p style=&quot;align:left;margin-left:0;margin-right:0;margin-top:0px;margin-bottom:0px;text-indent:0;valign:middle;direction:ltr;&quot;&gt;&lt;font style=&quot;font-size:16px;font-family:OracleSans-Regular;color:#100f0e;direction:ltr;letter-spacing:0px;line-height:120%;opacity:1&quot;&gt;Balancer&lt;br/&gt;&lt;/font&gt;&lt;/p&gt;" style="verticalAlign=middle;align=left;vsdxID=264;fillColor=none;gradientColor=none;shape=stencil(nZBLDoAgDERP0z3SIyjew0SURgSD+Lu9kMZoXLhwN9O+tukAlrNpJg1SzDH4QW/URgNYgZTkjA4UkwJUgGXng+6DX1zLfmoymdXo17xh5zmRJ6Q42BWCfc2oJfdAr+Yv+AP9Cb7OJ3H/2JG1HNGz/84klThPVCc=);strokeColor=none;spacingTop=-3;spacingBottom=-3;spacingLeft=-3;spacingRight=-3;labelBackgroundColor=none;rounded=0;html=1;whiteSpace=wrap;" vertex="1" parent="G_j2vgRkdE4tbqR_UgK8-124">
          <mxGeometry x="2" y="87" width="134" height="20" as="geometry" />
        </mxCell>
        <mxCell id="G_j2vgRkdE4tbqR_UgK8-144" value="&lt;b&gt;Subnet LB&lt;/b&gt;" style="text;html=1;align=center;verticalAlign=middle;whiteSpace=wrap;rounded=0;fontFamily=Helvetica;fontSize=12;fontColor=default;labelBackgroundColor=none;" vertex="1" parent="1">
          <mxGeometry x="1064" y="297" width="70" height="30" as="geometry" />
        </mxCell>
        <mxCell id="G_j2vgRkdE4tbqR_UgK8-150" value="&lt;p style=&quot;align:left;margin-left:0;margin-right:0;margin-top:0px;margin-bottom:0px;text-indent:0;valign:middle;direction:ltr;&quot;&gt;&lt;font style=&quot;font-size:16px;font-family:OracleSans-Regular;color:#100f0e;direction:ltr;letter-spacing:0px;line-height:120%;opacity:1&quot;&gt;Node 1&lt;br&gt;&lt;/font&gt;&lt;/p&gt;" style="verticalAlign=middle;align=left;vsdxID=150;fillColor=none;gradientColor=none;shape=stencil(nZBLDoAgDERP0z3SIyjew0SURgSD+Lu9kMZoXLhwN9O+tukAlrNpJg1SzDH4QW/URgNYgZTkjA4UkwJUgGXng+6DX1zLfmoymdXo17xh5zmRJ6Q42BWCfc2oJfdAr+Yv+AP9Cb7OJ3H/2JG1HNGz/84klThPVCc=);strokeColor=none;spacingTop=-3;spacingBottom=-3;spacingLeft=-3;spacingRight=-3;labelBackgroundColor=none;rounded=0;html=1;whiteSpace=wrap;" vertex="1" parent="1">
          <mxGeometry x="1295.5" y="755" width="101" height="20" as="geometry" />
        </mxCell>
        <mxCell id="G_j2vgRkdE4tbqR_UgK8-152" value="&lt;p style=&quot;align:left;margin-left:0;margin-right:0;margin-top:0px;margin-bottom:0px;text-indent:0;valign:middle;direction:ltr;&quot;&gt;&lt;font style=&quot;font-size:16px;font-family:OracleSans-Regular;color:#100f0e;direction:ltr;letter-spacing:0px;line-height:120%;opacity:1&quot;&gt;Node 3&lt;br&gt;&lt;/font&gt;&lt;/p&gt;" style="verticalAlign=middle;align=left;vsdxID=150;fillColor=none;gradientColor=none;shape=stencil(nZBLDoAgDERP0z3SIyjew0SURgSD+Lu9kMZoXLhwN9O+tukAlrNpJg1SzDH4QW/URgNYgZTkjA4UkwJUgGXng+6DX1zLfmoymdXo17xh5zmRJ6Q42BWCfc2oJfdAr+Yv+AP9Cb7OJ3H/2JG1HNGz/84klThPVCc=);strokeColor=none;spacingTop=-3;spacingBottom=-3;spacingLeft=-3;spacingRight=-3;labelBackgroundColor=none;rounded=0;html=1;whiteSpace=wrap;" vertex="1" parent="1">
          <mxGeometry x="1498" y="755" width="101" height="20" as="geometry" />
        </mxCell>
        <mxCell id="G_j2vgRkdE4tbqR_UgK8-531" style="vsdxID=239;fillColor=none;gradientColor=none;strokeColor=none;spacingTop=-3;spacingBottom=-3;spacingLeft=-3;spacingRight=-3;points=[];labelBackgroundColor=none;rounded=0;html=1;whiteSpace=wrap;" vertex="1" parent="1">
          <mxGeometry x="1390" y="520" width="186" height="108" as="geometry" />
        </mxCell>
        <mxCell id="G_j2vgRkdE4tbqR_UgK8-532" style="vsdxID=240;fillColor=none;gradientColor=none;strokeColor=none;spacingTop=-3;spacingBottom=-3;spacingLeft=-3;spacingRight=-3;points=[];labelBackgroundColor=none;rounded=0;html=1;whiteSpace=wrap;" vertex="1" parent="G_j2vgRkdE4tbqR_UgK8-531">
          <mxGeometry x="3" width="84" height="84" as="geometry" />
        </mxCell>
        <mxCell id="G_j2vgRkdE4tbqR_UgK8-533" style="vsdxID=241;fillColor=none;gradientColor=none;strokeColor=none;spacingTop=-3;spacingBottom=-3;spacingLeft=-3;spacingRight=-3;points=[];labelBackgroundColor=none;rounded=0;html=1;whiteSpace=wrap;" vertex="1" parent="G_j2vgRkdE4tbqR_UgK8-532">
          <mxGeometry width="84" height="84" as="geometry" />
        </mxCell>
        <mxCell id="G_j2vgRkdE4tbqR_UgK8-534" style="vsdxID=242;fillColor=#FFFFFF;gradientColor=none;shape=stencil(lZPRDoIwDEW/Zq9LWUHCs+J/EAVZRCATFP/eYYdsAzW+td2922mzMtxey6zNmYBrp5pzfpfHrmS4Y0LIusyV7HTEMGW4LRqVn1TT10fK22xUjtGluY03DOSLOEajScCDCknC482rsif9oVdkCEggeIjGEfgWGASVwChMmsQchVGgqzBpEvLQfrWStUUJDuKb+QMhuHgz8ERnteDyTnDWVBzcVTiNvnFnCN/o9Cyi2CUEFy8Ab3xWB+hLfOJVxFnuI3+AnA1L6kEsG/HJB1zOxkNfBf39Hf/V62D++4WsKlod+9zfFV2iPcP0CQ==);strokeColor=none;spacingTop=-3;spacingBottom=-3;spacingLeft=-3;spacingRight=-3;points=[];labelBackgroundColor=none;rounded=0;html=1;whiteSpace=wrap;" vertex="1" parent="G_j2vgRkdE4tbqR_UgK8-533">
          <mxGeometry x="1" y="1" width="82" height="82" as="geometry" />
        </mxCell>
        <mxCell id="G_j2vgRkdE4tbqR_UgK8-535" style="vsdxID=243;fillColor=#FFFFFF;gradientColor=none;shape=stencil(lZXRdoIwDIafprc9aUOBXjv3Hp6JgzMGHsQN316whbYBQe9K/INf/iSU4e6SH84Zk3Bpm/on+y+Obc7wg0lZVHnWFG1/YrhnuDvVTfbd1NfqaJ7Ph0E5nH7rv+ENncnTyFENWRJuJiI5po/Ap9F/XRuTIGyG4pG2GYKkQCetKOE4imwo4tJGOpyLbCjmEfp/XhaVD+slTPipWKX1UlwBWhFcryZXQRoTXs8rpKpF4L4cEfJSPeXtXUoJbsJjGeI6v2+ugESEtJ7I8avkOayXsNwMyuoliFmP5ayeGXyHM5co+/IYbM7su/qtnYA3WgzrlqUqtAxCv4CaRYcQQqfWFwYCss1lAUYnT0R08iZ+GxEAbKObo+RZc1S400S+sNGCeOgYKJS3zVMpSDWvrYfTv7YdWvMkpt/JqZsjV8y1CFGJnQsfnXU310a3P7iL4FSUpblH/N/pxdGHzKWD+zs=);strokeColor=none;spacingTop=-3;spacingBottom=-3;spacingLeft=-3;spacingRight=-3;points=[];labelBackgroundColor=none;rounded=0;html=1;whiteSpace=wrap;" vertex="1" parent="G_j2vgRkdE4tbqR_UgK8-533">
          <mxGeometry width="84" height="84" as="geometry" />
        </mxCell>
        <mxCell id="G_j2vgRkdE4tbqR_UgK8-536" style="vsdxID=244;fillColor=none;gradientColor=none;strokeColor=none;spacingTop=-3;spacingBottom=-3;spacingLeft=-3;spacingRight=-3;points=[];labelBackgroundColor=none;rounded=0;html=1;whiteSpace=wrap;" vertex="1" parent="G_j2vgRkdE4tbqR_UgK8-532">
          <mxGeometry x="2" y="2" width="80" height="80" as="geometry" />
        </mxCell>
        <mxCell id="G_j2vgRkdE4tbqR_UgK8-537" style="vsdxID=245;fillColor=#2d5967;gradientColor=none;shape=stencil(lZXLcoMwDEW/xlvGSDzqdZr+R6YhhSmFDCEt+ftCDViSE+Lu/LgyR9I1Vri7lIdzoUBf+q79LH6qY18qfFUAVVMWXdWPI4V7hbtT2xUfXXttjnZ+PkzKafTVfk8nDDbOpFEaT1Ggb3ZF/83erLiuGiJOIkgea9+vnT05tpswS2Oq1QOw6Q2YeEC+i+uH08dYmjGZbAtKcyjzwqmAU8Vacy5SAeSSu2RjdfOM0Qm5xFt4Fj4HIIkWxDUDlAJ0DBvFc/r7pfYIzXLcCgkc0eROwZs9oG86fOq6JxYVfs4izcVe/l5GJCRmHnIpkT7CGjUXaistpwq7UJ5ewmJkjGR1ILCI8kTSclSiCLMJCQjzCQmYVxIJuWbisEVF/euGm5T+fZP6gOYTDNJr0f6Eg1JF0D8rwKf/DhgH7jd/quravhJ0Xz4L45J9UnD/Cw==);strokeColor=none;spacingTop=-3;spacingBottom=-3;spacingLeft=-3;spacingRight=-3;points=[];labelBackgroundColor=none;rounded=0;html=1;whiteSpace=wrap;" vertex="1" parent="G_j2vgRkdE4tbqR_UgK8-536">
          <mxGeometry width="80" height="80" as="geometry" />
        </mxCell>
        <mxCell id="G_j2vgRkdE4tbqR_UgK8-538" style="vsdxID=246;fillColor=#2d5967;gradientColor=none;shape=stencil(pZLZDsIgEEW/hldCGRfea/2PJqVCRGgodfl7IRPTxUZtfbsznDszIZdA3qqykYSzNnh3ljddBUXgQDjXVkmvQ1QECgJ57bw8edfZCuumTGRSF3dNE+7oyxhLHs4eWGN1RNRoO0BXgq8Ns+h0/SJ4LTr+AQE0245gsaF8/2H2joo/DX1n1vB+0mLDl5N+METRh6bWxmDmhu/TkMUWBhSKJw==);strokeColor=none;spacingTop=-3;spacingBottom=-3;spacingLeft=-3;spacingRight=-3;points=[];labelBackgroundColor=none;rounded=0;html=1;whiteSpace=wrap;" vertex="1" parent="G_j2vgRkdE4tbqR_UgK8-536">
          <mxGeometry x="21" y="8" width="17" height="17" as="geometry" />
        </mxCell>
        <mxCell id="G_j2vgRkdE4tbqR_UgK8-539" style="vsdxID=247;fillColor=#2d5967;gradientColor=none;shape=stencil(pZLdDoIwDIWfZrfLtgrMa9T3IDJkERkZoPj2slQjDAV/7tr1O+1ZUwJxnSeVIoLVjTVHddFpkxPYECF0mSurmz4isCUQZ8aqgzVtmWJeJY500cmcXYcOdZwxpxHsijlmO0QLXQ7QH8HHhJeoP96D961FsxzLa0lldBdwr0MnpowYGerAHwqLf5ndz3iVEigPRrBcURHN9A6pDP8TuJfgvWBq6WvBgqUPBH3wvL5MFwUe77DuX2v/hJcO2xs=);strokeColor=none;spacingTop=-3;spacingBottom=-3;spacingLeft=-3;spacingRight=-3;points=[];labelBackgroundColor=none;rounded=0;html=1;whiteSpace=wrap;" vertex="1" parent="G_j2vgRkdE4tbqR_UgK8-536">
          <mxGeometry x="41" y="8" width="17" height="17" as="geometry" />
        </mxCell>
        <mxCell id="G_j2vgRkdE4tbqR_UgK8-540" style="vsdxID=248;fillColor=#2d5967;gradientColor=none;shape=stencil(pZJNDsIgEIVPM1sCg9WyrvUeTUqFWKGh1J/bCxJj1Vir7mYe72PC8IAXvao6CUh77+xOHnXtFfA1IGqjpNM+VMBL4EVjndw6O5g69V0VnbHa20O84ZQ4lhHBIoX0nBSekRVelU0CWm1GQL4gVPwHCCT58j3AKH2w3/pZ5gnrj8bp8S/r+/S4b/c9AwjF/Xsb3bYpHePz5zgEKUWJlxc=);strokeColor=none;spacingTop=-3;spacingBottom=-3;spacingLeft=-3;spacingRight=-3;points=[];labelBackgroundColor=none;rounded=0;html=1;whiteSpace=wrap;" vertex="1" parent="G_j2vgRkdE4tbqR_UgK8-536">
          <mxGeometry x="31" y="29" width="17" height="8" as="geometry" />
        </mxCell>
        <mxCell id="G_j2vgRkdE4tbqR_UgK8-541" style="vsdxID=249;fillColor=#2d5967;gradientColor=none;shape=stencil(pZLNDsIgEISfhisBtoica32PJqVCRGho/Xt7QWKsGmvV2+wwHyHLICh7XXcKMdIPwW/V0TSDRrBCjBmnVTBDVAgqBGXrg9oEv3dNnrs6JZPa+UO64ZQ5yrGkiWLknB3GMMirs86ANW4ELAtM5H+A5JjDe4AS8hC/zbPCE9EfgwuBqZh4wMsCBWBafAN8WOAMIIr7B7fG2tyP8flzIaKVywTVBQ==);strokeColor=none;spacingTop=-3;spacingBottom=-3;spacingLeft=-3;spacingRight=-3;points=[];labelBackgroundColor=none;rounded=0;html=1;whiteSpace=wrap;" vertex="1" parent="G_j2vgRkdE4tbqR_UgK8-536">
          <mxGeometry x="51" y="29" width="17" height="13" as="geometry" />
        </mxCell>
        <mxCell id="G_j2vgRkdE4tbqR_UgK8-542" style="vsdxID=250;fillColor=#2d5967;gradientColor=none;shape=stencil(pZLbDsIgEES/hlcCbBF5rvU/mpQKEaGh9fb3gsRYL41V34ZhDpssg6Dsdd0pxEg/BL9VR9MMGsEKMWacVsEMUSGoEJStD2oT/N41+dzVKZnUzh/SC6fMUY4lTRQj5+wwhkFenXUGrHEjYFlgIv8DBGBaTAOUkIf4QmAq5sfJdPTH4G3C+/EvC5Qcc/gG+LDAGUAU9w9ujbW5H+P750JEK5cJqgs=);strokeColor=none;spacingTop=-3;spacingBottom=-3;spacingLeft=-3;spacingRight=-3;points=[];labelBackgroundColor=none;rounded=0;html=1;whiteSpace=wrap;" vertex="1" parent="G_j2vgRkdE4tbqR_UgK8-536">
          <mxGeometry x="11" y="29" width="17" height="13" as="geometry" />
        </mxCell>
        <mxCell id="G_j2vgRkdE4tbqR_UgK8-543" style="vsdxID=251;fillColor=#2d5967;gradientColor=none;shape=stencil(nVTLcoMwDPwaXzW25fhxTpP/yDSkMKWQIaSlf18Ym2LZA016s8WuVlphMdzfytO1YJLf+q59L76qc18yfGFSVk1ZdFU/nhgeGO4vbVe8de29Ofv79TQhp9NH+zllGDxvxyeK5N/+6m9Hj6yrJkJSoESQYgMMGineANoY/3rvfB3CAzTgzAgRw0EqHxpkyKJhZwMqhAQPhQ2YdIQUsKJrEJSkwkvKoOEQnKOycXFByDlAQ7WzrqlLv0KPmfr4rLaQdP7KgHEELDgIuZ46JzgB3GxZLC0ITS22DqylJgsBmJis1YKapwupxQ6Mfqbcp/vLCMkLkvPQVg1JhpMR/ijJKUgeU9pz6ri1oAV1PPZy/ocFWEUdj+eCebn4zwYzwnhYNtKlqmu/0OLv6QYbQ3774eEH);strokeColor=none;spacingTop=-3;spacingBottom=-3;spacingLeft=-3;spacingRight=-3;points=[];labelBackgroundColor=none;rounded=0;html=1;whiteSpace=wrap;" vertex="1" parent="G_j2vgRkdE4tbqR_UgK8-536">
          <mxGeometry x="8" y="37" width="63" height="33" as="geometry" />
        </mxCell>
        <mxCell id="G_j2vgRkdE4tbqR_UgK8-544" value="&lt;div style=&quot;font-size: 1px&quot;&gt;&lt;p style=&quot;align:left;margin-left:0;margin-right:0;margin-top:0px;margin-bottom:0px;text-indent:0;valign:middle;direction:ltr;&quot;&gt;&lt;font style=&quot;font-size:16.93px;font-family:Oracle Sans;color:#000000;direction:ltr;letter-spacing:0px;line-height:120%;opacity:1&quot;&gt;OKE Master&amp;nbsp;&lt;br&gt;&lt;/font&gt;&lt;/p&gt;&lt;/div&gt;" style="verticalAlign=middle;align=left;vsdxID=252;fillColor=none;gradientColor=none;shape=stencil(nZBLDoAgDERP0z3SIyjew0SURgSD+Lu9kMZoXLhwN9O+tukAlrNpJg1SzDH4QW/URgNYgZTkjA4UkwJUgGXng+6DX1zLfmoymdXo17xh5zmRJ6Q42BWCfc2oJfdAr+Yv+AP9Cb7OJ3H/2JG1HNGz/84klThPVCc=);strokeColor=none;spacingTop=-3;spacingBottom=-3;spacingLeft=-3;spacingRight=-3;points=[];labelBackgroundColor=none;rounded=0;html=1;whiteSpace=wrap;" vertex="1" parent="G_j2vgRkdE4tbqR_UgK8-531">
          <mxGeometry y="88" width="186" height="20" as="geometry" />
        </mxCell>
        <mxCell id="G_j2vgRkdE4tbqR_UgK8-545" value="" style="group" vertex="1" connectable="0" parent="1">
          <mxGeometry x="1289" y="670" width="351" height="118.5" as="geometry" />
        </mxCell>
        <mxCell id="Aclf-5IVf1YPgZWVU2Xc-74" style="vsdxID=73;fillColor=none;gradientColor=none;strokeColor=none;spacingTop=-3;spacingBottom=-3;spacingLeft=-3;spacingRight=-3;labelBackgroundColor=none;rounded=0;html=1;whiteSpace=wrap;" parent="G_j2vgRkdE4tbqR_UgK8-545" vertex="1">
          <mxGeometry y="2" width="107" height="88" as="geometry" />
        </mxCell>
        <mxCell id="Aclf-5IVf1YPgZWVU2Xc-75" style="vsdxID=74;fillColor=none;gradientColor=none;strokeColor=none;spacingTop=-3;spacingBottom=-3;spacingLeft=-3;spacingRight=-3;labelBackgroundColor=none;rounded=0;html=1;whiteSpace=wrap;" parent="Aclf-5IVf1YPgZWVU2Xc-74" vertex="1">
          <mxGeometry width="67" height="67" as="geometry" />
        </mxCell>
        <mxCell id="Aclf-5IVf1YPgZWVU2Xc-76" style="vsdxID=75;fillColor=none;gradientColor=none;strokeColor=none;spacingTop=-3;spacingBottom=-3;spacingLeft=-3;spacingRight=-3;labelBackgroundColor=none;rounded=0;html=1;whiteSpace=wrap;" parent="Aclf-5IVf1YPgZWVU2Xc-75" vertex="1">
          <mxGeometry width="67" height="67" as="geometry" />
        </mxCell>
        <mxCell id="Aclf-5IVf1YPgZWVU2Xc-77" style="vsdxID=76;fillColor=#FFFFFF;gradientColor=none;shape=stencil(hZNLEoMgDEBPw5YB4o91P/dwqlamVh1qW719sehIUNtdAo/4iIHA4VGmbU4Ee3S6ueVvlXUlgSMRQtVlrlVnIgInAoei0flVN886s3mbjuQY3ZvXWKG356SgYTyeEmywK+ybnS1cqdqBYxrAPnt5aluZ202gAZ9o7uKsFygdxMzzqXoPGID581zuyzFkZu6V8F92DKvJiCYJ1nP8pxXOGBZ0GgIY2VRcN9vDfUljFUosujj4UrOlexXwGdhpDxZd+O3OrzwljTxP52+K9WXwBPSw7g/8ncY/o2uCZegLVVX2zbj7/iMxS/aBwekD);strokeColor=none;strokeWidth=2;spacingTop=-3;spacingBottom=-3;spacingLeft=-3;spacingRight=-3;labelBackgroundColor=none;rounded=0;html=1;whiteSpace=wrap;" parent="Aclf-5IVf1YPgZWVU2Xc-76" vertex="1">
          <mxGeometry width="67" height="67" as="geometry" />
        </mxCell>
        <mxCell id="Aclf-5IVf1YPgZWVU2Xc-78" style="vsdxID=77;fillColor=#2c5967;gradientColor=none;shape=stencil(lZXRdoMgDIafxlsOkirjumvfo2e10zNXe6zd9O2noxASdLo7CH/0I/mBBPb38nQrEiXvXdt8FN/VuSsTeE2Uqq5l0VbdOErgkMD+0rTFe9s8rmc7v50m5TT6bL6mL/Q2z2RCvkxZSg42In9nRyuuq2sg3gmjlrVvj9Z+ObWLSsBTnIZq2SsyHRST90DXwf8cltEk4Zp2pf9ik5TMaKEpHMI/A6mUFC8oBlDJLGBcaCbniMjkKBGBMznIYB/AJbBQGoqJ+vmqc0rUu4AwrJTBRmjne4hLA6smXHEss7cWQMWr1ghTXCj3Ib+pMWTWim92Qmes/E60cMAyQ2mZnMOCUJw1sjJ2ZEB4nTKfoGijUTBho1MwwcPnip86k1HU6FYISgRUMu+WoAWz8qj9udu250QGFVtE+UYY1vxAtOkK2+DVfyeMA7z5L1Vd24cjXOcvxRiyrwwcfgA=);strokeColor=none;strokeWidth=2;spacingTop=-3;spacingBottom=-3;spacingLeft=-3;spacingRight=-3;labelBackgroundColor=none;rounded=0;html=1;whiteSpace=wrap;" parent="Aclf-5IVf1YPgZWVU2Xc-76" vertex="1">
          <mxGeometry x="1" y="1" width="64" height="63" as="geometry" />
        </mxCell>
        <mxCell id="Aclf-5IVf1YPgZWVU2Xc-79" style="vsdxID=78;fillColor=#2c5967;gradientColor=none;shape=stencil(pZLRDsIgDEW/htcF22T6Pud/LBkTIsLC0OnfC2kM2yTRzbfbcm7bkMuwGmTTCwZ88M5exKhaLxkeGYAyUjjlg2JYM6w668TZ2Ztpqe6bSEZ1tfc44UG+HefRA/xJNVUnQrUyE3Qj+N6QRZfrV8Fb0fkP7LEoDzM4dbKzoSwQ/jOkTtbwedJqw5eTfjAEkULTKa0pc9P3ZchCiwKK9Qs=);strokeColor=none;strokeWidth=2;spacingTop=-3;spacingBottom=-3;spacingLeft=-3;spacingRight=-3;labelBackgroundColor=none;rounded=0;html=1;whiteSpace=wrap;" parent="Aclf-5IVf1YPgZWVU2Xc-75" vertex="1">
          <mxGeometry x="27" y="26" width="11" height="11" as="geometry" />
        </mxCell>
        <mxCell id="Aclf-5IVf1YPgZWVU2Xc-80" style="vsdxID=79;fillColor=#2c5967;gradientColor=none;shape=stencil(lZLdDsIgDIWfhnvWhrj7Od9jcUyIcyxsU/b2QqqZNJnRu/6c8lE4AqvJNKMWIKfZu6t+2HY2Ao8CwA5GezvHSGAtsOqc1xfvlqGlfGySMkU3d08nBJpTMo2AXCktJOUn0p4XT+KC2uVbXeRyGYAVVsgnAnIBZhfYAW7yVwEYsGQ8hlOM9hUGjMVQjMRRf+3FSAeVo0DlrO2dd/Zi/9bb4ec/jsFmjs72PXnrs8/NFEtkRKyf);strokeColor=none;strokeWidth=2;spacingTop=-3;spacingBottom=-3;spacingLeft=-3;spacingRight=-3;labelBackgroundColor=none;rounded=0;html=1;whiteSpace=wrap;" parent="Aclf-5IVf1YPgZWVU2Xc-75" vertex="1">
          <mxGeometry x="42" y="46" width="4" height="4" as="geometry" />
        </mxCell>
        <mxCell id="Aclf-5IVf1YPgZWVU2Xc-81" style="vsdxID=80;fillColor=#2c5967;gradientColor=none;shape=stencil(pZLRDsIgDEW/htcF22T6Pud/LBkTIsLC0OnfC2kM2yTRzbfbcm7bkMuwGmTTCwZ88M5exKhaLxkeGYAyUjjlg2JYM6w668TZ2Ztpqe6bSEZ1tfc44UG+HefRA/xJNVUnQrUyE3Qj+N6QRZfrV8Fb0fkP7LEoDzM4dbKzoSwQ/jOkTtbwedJqw5eTfjAEkULTKa0pc9P3ZchCiwKK9Qs=);strokeColor=none;strokeWidth=2;spacingTop=-3;spacingBottom=-3;spacingLeft=-3;spacingRight=-3;labelBackgroundColor=none;rounded=0;html=1;whiteSpace=wrap;" parent="Aclf-5IVf1YPgZWVU2Xc-75" vertex="1">
          <mxGeometry x="12" y="26" width="11" height="11" as="geometry" />
        </mxCell>
        <mxCell id="Aclf-5IVf1YPgZWVU2Xc-82" style="vsdxID=81;fillColor=#2c5967;gradientColor=none;shape=stencil(pZLRDsIgDEW/htcF22T6Pud/LBkTIsLC0OnfC2kM2yTRzbfbcm7bkMuwGmTTCwZ88M5exKhaLxkeGYAyUjjlg2JYM6w668TZ2Ztpqe6bSEZ1tfc44UG+HefRA/xJNVUnQrUyE3Qj+N6QRZfrV8Fb0fkP7LEoDzM4dbKzoSwQ/jOkTtbwedJqw5eTfjAEkULTKa0pc9P3ZchCiwKK9Qs=);strokeColor=none;strokeWidth=2;spacingTop=-3;spacingBottom=-3;spacingLeft=-3;spacingRight=-3;labelBackgroundColor=none;rounded=0;html=1;whiteSpace=wrap;" parent="Aclf-5IVf1YPgZWVU2Xc-75" vertex="1">
          <mxGeometry x="27" y="11" width="11" height="11" as="geometry" />
        </mxCell>
        <mxCell id="Aclf-5IVf1YPgZWVU2Xc-83" style="vsdxID=82;fillColor=#2c5967;gradientColor=none;shape=stencil(pZLRDsIgDEW/htcF22T6Pud/LBkTIsLC0OnfC2kM2yTRzbfbcm7bkMuwGmTTCwZ88M5exKhaLxkeGYAyUjjlg2JYM6w668TZ2Ztpqe6bSEZ1tfc44UG+HefRA/xJNVUnQrUyE3Qj+N6QRZfrV8Fb0fkP7LEoDzM4dbKzoSwQ/jOkTtbwedJqw5eTfjAEkULTKa0pc9P3ZchCiwKK9Qs=);strokeColor=none;strokeWidth=2;spacingTop=-3;spacingBottom=-3;spacingLeft=-3;spacingRight=-3;labelBackgroundColor=none;rounded=0;html=1;whiteSpace=wrap;" parent="Aclf-5IVf1YPgZWVU2Xc-75" vertex="1">
          <mxGeometry x="42" y="11" width="11" height="11" as="geometry" />
        </mxCell>
        <mxCell id="Aclf-5IVf1YPgZWVU2Xc-84" style="vsdxID=83;fillColor=#2c5967;gradientColor=none;shape=stencil(pZLRDsIgDEW/htcF22T6Pud/LBkTIsLC0OnfC2kM2yTRzbfbcm7bkMuwGmTTCwZ88M5exKhaLxkeGYAyUjjlg2JYM6w668TZ2Ztpqe6bSEZ1tfc44UG+HefRA/xJNVUnQrUyE3Qj+N6QRZfrV8Fb0fkP7LEoDzM4dbKzoSwQ/jOkTtbwedJqw5eTfjAEkULTKa0pc9P3ZchCiwKK9Qs=);strokeColor=none;strokeWidth=2;spacingTop=-3;spacingBottom=-3;spacingLeft=-3;spacingRight=-3;labelBackgroundColor=none;rounded=0;html=1;whiteSpace=wrap;" parent="Aclf-5IVf1YPgZWVU2Xc-75" vertex="1">
          <mxGeometry x="12" y="11" width="11" height="11" as="geometry" />
        </mxCell>
        <mxCell id="Aclf-5IVf1YPgZWVU2Xc-85" style="vsdxID=84;fillColor=#2c5967;gradientColor=none;shape=stencil(vZJNDsIgEIVPw5bQGa2yrvUeTUqFiKWh1J/bC2GhaKSpJu7eDN8bJpNHsBplMwgCbHTWHMVFtU4S3BEA1UthlfOKYE2w6owVB2umvo310AQyqJM5hwnX6CsYCx5gt7TeR1irPgNn0C/BRd//DU5PxhkteYJvVhTh83ROsfiJhzUttxn+baHFhrmN5g1ePDLWKa1jRJ/fXzPpWzHPWN8B);strokeColor=none;strokeWidth=2;spacingTop=-3;spacingBottom=-3;spacingLeft=-3;spacingRight=-3;labelBackgroundColor=none;rounded=0;html=1;whiteSpace=wrap;" parent="Aclf-5IVf1YPgZWVU2Xc-75" vertex="1">
          <mxGeometry x="12" y="41" width="42" height="15" as="geometry" />
        </mxCell>
        <mxCell id="Aclf-5IVf1YPgZWVU2Xc-86" style="vsdxID=85;fillColor=#2c5967;gradientColor=none;shape=stencil(pZLRDsIgDEW/htcF22T6Pud/LBkTIsLC0OnfC2kM2yTRzbfbcm7bkMuwGmTTCwZ88M5exKhaLxkeGYAyUjjlg2JYM6w668TZ2Ztpqe6bSEZ1tfc44UG+HefRA/xJNVUnQrUyE3Qj+N6QRZfrV8Fb0fkP7LEoDzM4dbKzoSwQ/jOkTtbwedJqw5eTfjAEkULTKa0pc9P3ZchCiwKK9Qs=);strokeColor=none;strokeWidth=2;spacingTop=-3;spacingBottom=-3;spacingLeft=-3;spacingRight=-3;labelBackgroundColor=none;rounded=0;html=1;whiteSpace=wrap;" parent="Aclf-5IVf1YPgZWVU2Xc-75" vertex="1">
          <mxGeometry x="42" y="26" width="11" height="11" as="geometry" />
        </mxCell>
        <mxCell id="Aclf-5IVf1YPgZWVU2Xc-87" value="&lt;p style=&quot;align:left;margin-left:0;margin-right:0;margin-top:0px;margin-bottom:0px;text-indent:0;valign:middle;direction:ltr;&quot;&gt;&lt;font style=&quot;font-size:16px;font-family:OracleSans-Regular;color:#000000;direction:ltr;letter-spacing:0px;line-height:120%;opacity:1&quot;&gt;Worker&lt;br/&gt;&lt;/font&gt;&lt;/p&gt;" style="verticalAlign=middle;align=left;vsdxID=86;fillColor=none;gradientColor=none;shape=stencil(nZBLDoAgDERP0z3SIyjew0SURgSD+Lu9kMZoXLhwN9O+tukAlrNpJg1SzDH4QW/URgNYgZTkjA4UkwJUgGXng+6DX1zLfmoymdXo17xh5zmRJ6Q42BWCfc2oJfdAr+Yv+AP9Cb7OJ3H/2JG1HNGz/84klThPVCc=);strokeColor=none;spacingTop=-3;spacingBottom=-3;spacingLeft=-3;spacingRight=-3;labelBackgroundColor=none;rounded=0;html=1;whiteSpace=wrap;" parent="Aclf-5IVf1YPgZWVU2Xc-74" vertex="1">
          <mxGeometry x="6" y="67" width="101" height="20" as="geometry" />
        </mxCell>
        <mxCell id="G_j2vgRkdE4tbqR_UgK8-93" style="vsdxID=73;fillColor=none;gradientColor=none;strokeColor=none;spacingTop=-3;spacingBottom=-3;spacingLeft=-3;spacingRight=-3;labelBackgroundColor=none;rounded=0;html=1;whiteSpace=wrap;" vertex="1" parent="G_j2vgRkdE4tbqR_UgK8-545">
          <mxGeometry x="101" width="119.5" height="108" as="geometry" />
        </mxCell>
        <mxCell id="G_j2vgRkdE4tbqR_UgK8-94" style="vsdxID=74;fillColor=none;gradientColor=none;strokeColor=none;spacingTop=-3;spacingBottom=-3;spacingLeft=-3;spacingRight=-3;labelBackgroundColor=none;rounded=0;html=1;whiteSpace=wrap;" vertex="1" parent="G_j2vgRkdE4tbqR_UgK8-93">
          <mxGeometry width="67" height="67" as="geometry" />
        </mxCell>
        <mxCell id="G_j2vgRkdE4tbqR_UgK8-95" style="vsdxID=75;fillColor=none;gradientColor=none;strokeColor=none;spacingTop=-3;spacingBottom=-3;spacingLeft=-3;spacingRight=-3;labelBackgroundColor=none;rounded=0;html=1;whiteSpace=wrap;" vertex="1" parent="G_j2vgRkdE4tbqR_UgK8-94">
          <mxGeometry width="67" height="67" as="geometry" />
        </mxCell>
        <mxCell id="G_j2vgRkdE4tbqR_UgK8-96" style="vsdxID=76;fillColor=#FFFFFF;gradientColor=none;shape=stencil(hZNLEoMgDEBPw5YB4o91P/dwqlamVh1qW719sehIUNtdAo/4iIHA4VGmbU4Ee3S6ueVvlXUlgSMRQtVlrlVnIgInAoei0flVN886s3mbjuQY3ZvXWKG356SgYTyeEmywK+ybnS1cqdqBYxrAPnt5aluZ202gAZ9o7uKsFygdxMzzqXoPGID581zuyzFkZu6V8F92DKvJiCYJ1nP8pxXOGBZ0GgIY2VRcN9vDfUljFUosujj4UrOlexXwGdhpDxZd+O3OrzwljTxP52+K9WXwBPSw7g/8ncY/o2uCZegLVVX2zbj7/iMxS/aBwekD);strokeColor=none;strokeWidth=2;spacingTop=-3;spacingBottom=-3;spacingLeft=-3;spacingRight=-3;labelBackgroundColor=none;rounded=0;html=1;whiteSpace=wrap;" vertex="1" parent="G_j2vgRkdE4tbqR_UgK8-95">
          <mxGeometry width="67" height="67" as="geometry" />
        </mxCell>
        <mxCell id="G_j2vgRkdE4tbqR_UgK8-97" style="vsdxID=77;fillColor=#2c5967;gradientColor=none;shape=stencil(lZXRdoMgDIafxlsOkirjumvfo2e10zNXe6zd9O2noxASdLo7CH/0I/mBBPb38nQrEiXvXdt8FN/VuSsTeE2Uqq5l0VbdOErgkMD+0rTFe9s8rmc7v50m5TT6bL6mL/Q2z2RCvkxZSg42In9nRyuuq2sg3gmjlrVvj9Z+ObWLSsBTnIZq2SsyHRST90DXwf8cltEk4Zp2pf9ik5TMaKEpHMI/A6mUFC8oBlDJLGBcaCbniMjkKBGBMznIYB/AJbBQGoqJ+vmqc0rUu4AwrJTBRmjne4hLA6smXHEss7cWQMWr1ghTXCj3Ib+pMWTWim92Qmes/E60cMAyQ2mZnMOCUJw1sjJ2ZEB4nTKfoGijUTBho1MwwcPnip86k1HU6FYISgRUMu+WoAWz8qj9udu250QGFVtE+UYY1vxAtOkK2+DVfyeMA7z5L1Vd24cjXOcvxRiyrwwcfgA=);strokeColor=none;strokeWidth=2;spacingTop=-3;spacingBottom=-3;spacingLeft=-3;spacingRight=-3;labelBackgroundColor=none;rounded=0;html=1;whiteSpace=wrap;" vertex="1" parent="G_j2vgRkdE4tbqR_UgK8-95">
          <mxGeometry x="1" y="1" width="64" height="63" as="geometry" />
        </mxCell>
        <mxCell id="G_j2vgRkdE4tbqR_UgK8-98" style="vsdxID=78;fillColor=#2c5967;gradientColor=none;shape=stencil(pZLRDsIgDEW/htcF22T6Pud/LBkTIsLC0OnfC2kM2yTRzbfbcm7bkMuwGmTTCwZ88M5exKhaLxkeGYAyUjjlg2JYM6w668TZ2Ztpqe6bSEZ1tfc44UG+HefRA/xJNVUnQrUyE3Qj+N6QRZfrV8Fb0fkP7LEoDzM4dbKzoSwQ/jOkTtbwedJqw5eTfjAEkULTKa0pc9P3ZchCiwKK9Qs=);strokeColor=none;strokeWidth=2;spacingTop=-3;spacingBottom=-3;spacingLeft=-3;spacingRight=-3;labelBackgroundColor=none;rounded=0;html=1;whiteSpace=wrap;" vertex="1" parent="G_j2vgRkdE4tbqR_UgK8-94">
          <mxGeometry x="27" y="26" width="11" height="11" as="geometry" />
        </mxCell>
        <mxCell id="G_j2vgRkdE4tbqR_UgK8-99" style="vsdxID=79;fillColor=#2c5967;gradientColor=none;shape=stencil(lZLdDsIgDIWfhnvWhrj7Od9jcUyIcyxsU/b2QqqZNJnRu/6c8lE4AqvJNKMWIKfZu6t+2HY2Ao8CwA5GezvHSGAtsOqc1xfvlqGlfGySMkU3d08nBJpTMo2AXCktJOUn0p4XT+KC2uVbXeRyGYAVVsgnAnIBZhfYAW7yVwEYsGQ8hlOM9hUGjMVQjMRRf+3FSAeVo0DlrO2dd/Zi/9bb4ec/jsFmjs72PXnrs8/NFEtkRKyf);strokeColor=none;strokeWidth=2;spacingTop=-3;spacingBottom=-3;spacingLeft=-3;spacingRight=-3;labelBackgroundColor=none;rounded=0;html=1;whiteSpace=wrap;" vertex="1" parent="G_j2vgRkdE4tbqR_UgK8-94">
          <mxGeometry x="42" y="46" width="4" height="4" as="geometry" />
        </mxCell>
        <mxCell id="G_j2vgRkdE4tbqR_UgK8-100" style="vsdxID=80;fillColor=#2c5967;gradientColor=none;shape=stencil(pZLRDsIgDEW/htcF22T6Pud/LBkTIsLC0OnfC2kM2yTRzbfbcm7bkMuwGmTTCwZ88M5exKhaLxkeGYAyUjjlg2JYM6w668TZ2Ztpqe6bSEZ1tfc44UG+HefRA/xJNVUnQrUyE3Qj+N6QRZfrV8Fb0fkP7LEoDzM4dbKzoSwQ/jOkTtbwedJqw5eTfjAEkULTKa0pc9P3ZchCiwKK9Qs=);strokeColor=none;strokeWidth=2;spacingTop=-3;spacingBottom=-3;spacingLeft=-3;spacingRight=-3;labelBackgroundColor=none;rounded=0;html=1;whiteSpace=wrap;" vertex="1" parent="G_j2vgRkdE4tbqR_UgK8-94">
          <mxGeometry x="12" y="26" width="11" height="11" as="geometry" />
        </mxCell>
        <mxCell id="G_j2vgRkdE4tbqR_UgK8-101" style="vsdxID=81;fillColor=#2c5967;gradientColor=none;shape=stencil(pZLRDsIgDEW/htcF22T6Pud/LBkTIsLC0OnfC2kM2yTRzbfbcm7bkMuwGmTTCwZ88M5exKhaLxkeGYAyUjjlg2JYM6w668TZ2Ztpqe6bSEZ1tfc44UG+HefRA/xJNVUnQrUyE3Qj+N6QRZfrV8Fb0fkP7LEoDzM4dbKzoSwQ/jOkTtbwedJqw5eTfjAEkULTKa0pc9P3ZchCiwKK9Qs=);strokeColor=none;strokeWidth=2;spacingTop=-3;spacingBottom=-3;spacingLeft=-3;spacingRight=-3;labelBackgroundColor=none;rounded=0;html=1;whiteSpace=wrap;" vertex="1" parent="G_j2vgRkdE4tbqR_UgK8-94">
          <mxGeometry x="27" y="11" width="11" height="11" as="geometry" />
        </mxCell>
        <mxCell id="G_j2vgRkdE4tbqR_UgK8-102" style="vsdxID=82;fillColor=#2c5967;gradientColor=none;shape=stencil(pZLRDsIgDEW/htcF22T6Pud/LBkTIsLC0OnfC2kM2yTRzbfbcm7bkMuwGmTTCwZ88M5exKhaLxkeGYAyUjjlg2JYM6w668TZ2Ztpqe6bSEZ1tfc44UG+HefRA/xJNVUnQrUyE3Qj+N6QRZfrV8Fb0fkP7LEoDzM4dbKzoSwQ/jOkTtbwedJqw5eTfjAEkULTKa0pc9P3ZchCiwKK9Qs=);strokeColor=none;strokeWidth=2;spacingTop=-3;spacingBottom=-3;spacingLeft=-3;spacingRight=-3;labelBackgroundColor=none;rounded=0;html=1;whiteSpace=wrap;" vertex="1" parent="G_j2vgRkdE4tbqR_UgK8-94">
          <mxGeometry x="42" y="11" width="11" height="11" as="geometry" />
        </mxCell>
        <mxCell id="G_j2vgRkdE4tbqR_UgK8-103" style="vsdxID=83;fillColor=#2c5967;gradientColor=none;shape=stencil(pZLRDsIgDEW/htcF22T6Pud/LBkTIsLC0OnfC2kM2yTRzbfbcm7bkMuwGmTTCwZ88M5exKhaLxkeGYAyUjjlg2JYM6w668TZ2Ztpqe6bSEZ1tfc44UG+HefRA/xJNVUnQrUyE3Qj+N6QRZfrV8Fb0fkP7LEoDzM4dbKzoSwQ/jOkTtbwedJqw5eTfjAEkULTKa0pc9P3ZchCiwKK9Qs=);strokeColor=none;strokeWidth=2;spacingTop=-3;spacingBottom=-3;spacingLeft=-3;spacingRight=-3;labelBackgroundColor=none;rounded=0;html=1;whiteSpace=wrap;" vertex="1" parent="G_j2vgRkdE4tbqR_UgK8-94">
          <mxGeometry x="12" y="11" width="11" height="11" as="geometry" />
        </mxCell>
        <mxCell id="G_j2vgRkdE4tbqR_UgK8-104" style="vsdxID=84;fillColor=#2c5967;gradientColor=none;shape=stencil(vZJNDsIgEIVPw5bQGa2yrvUeTUqFiKWh1J/bC2GhaKSpJu7eDN8bJpNHsBplMwgCbHTWHMVFtU4S3BEA1UthlfOKYE2w6owVB2umvo310AQyqJM5hwnX6CsYCx5gt7TeR1irPgNn0C/BRd//DU5PxhkteYJvVhTh83ROsfiJhzUttxn+baHFhrmN5g1ePDLWKa1jRJ/fXzPpWzHPWN8B);strokeColor=none;strokeWidth=2;spacingTop=-3;spacingBottom=-3;spacingLeft=-3;spacingRight=-3;labelBackgroundColor=none;rounded=0;html=1;whiteSpace=wrap;" vertex="1" parent="G_j2vgRkdE4tbqR_UgK8-94">
          <mxGeometry x="12" y="41" width="42" height="15" as="geometry" />
        </mxCell>
        <mxCell id="G_j2vgRkdE4tbqR_UgK8-105" style="vsdxID=85;fillColor=#2c5967;gradientColor=none;shape=stencil(pZLRDsIgDEW/htcF22T6Pud/LBkTIsLC0OnfC2kM2yTRzbfbcm7bkMuwGmTTCwZ88M5exKhaLxkeGYAyUjjlg2JYM6w668TZ2Ztpqe6bSEZ1tfc44UG+HefRA/xJNVUnQrUyE3Qj+N6QRZfrV8Fb0fkP7LEoDzM4dbKzoSwQ/jOkTtbwedJqw5eTfjAEkULTKa0pc9P3ZchCiwKK9Qs=);strokeColor=none;strokeWidth=2;spacingTop=-3;spacingBottom=-3;spacingLeft=-3;spacingRight=-3;labelBackgroundColor=none;rounded=0;html=1;whiteSpace=wrap;" vertex="1" parent="G_j2vgRkdE4tbqR_UgK8-94">
          <mxGeometry x="42" y="26" width="11" height="11" as="geometry" />
        </mxCell>
        <mxCell id="G_j2vgRkdE4tbqR_UgK8-106" value="&lt;p style=&quot;align:left;margin-left:0;margin-right:0;margin-top:0px;margin-bottom:0px;text-indent:0;valign:middle;direction:ltr;&quot;&gt;&lt;font style=&quot;font-size:16px;font-family:OracleSans-Regular;color:#000000;direction:ltr;letter-spacing:0px;line-height:120%;opacity:1&quot;&gt;Worker&lt;br/&gt;&lt;/font&gt;&lt;/p&gt;" style="verticalAlign=middle;align=left;vsdxID=86;fillColor=none;gradientColor=none;shape=stencil(nZBLDoAgDERP0z3SIyjew0SURgSD+Lu9kMZoXLhwN9O+tukAlrNpJg1SzDH4QW/URgNYgZTkjA4UkwJUgGXng+6DX1zLfmoymdXo17xh5zmRJ6Q42BWCfc2oJfdAr+Yv+AP9Cb7OJ3H/2JG1HNGz/84klThPVCc=);strokeColor=none;spacingTop=-3;spacingBottom=-3;spacingLeft=-3;spacingRight=-3;labelBackgroundColor=none;rounded=0;html=1;whiteSpace=wrap;" vertex="1" parent="G_j2vgRkdE4tbqR_UgK8-93">
          <mxGeometry x="6" y="67" width="101" height="20" as="geometry" />
        </mxCell>
        <mxCell id="G_j2vgRkdE4tbqR_UgK8-149" value="&lt;p style=&quot;align:left;margin-left:0;margin-right:0;margin-top:0px;margin-bottom:0px;text-indent:0;valign:middle;direction:ltr;&quot;&gt;&lt;font style=&quot;font-size:16px;font-family:OracleSans-Regular;color:#100f0e;direction:ltr;letter-spacing:0px;line-height:120%;opacity:1&quot;&gt;Node 2&lt;br/&gt;&lt;/font&gt;&lt;/p&gt;" style="verticalAlign=middle;align=left;vsdxID=150;fillColor=none;gradientColor=none;shape=stencil(nZBLDoAgDERP0z3SIyjew0SURgSD+Lu9kMZoXLhwN9O+tukAlrNpJg1SzDH4QW/URgNYgZTkjA4UkwJUgGXng+6DX1zLfmoymdXo17xh5zmRJ6Q42BWCfc2oJfdAr+Yv+AP9Cb7OJ3H/2JG1HNGz/84klThPVCc=);strokeColor=none;spacingTop=-3;spacingBottom=-3;spacingLeft=-3;spacingRight=-3;labelBackgroundColor=none;rounded=0;html=1;whiteSpace=wrap;" vertex="1" parent="G_j2vgRkdE4tbqR_UgK8-93">
          <mxGeometry x="7.5" y="85" width="101" height="20" as="geometry" />
        </mxCell>
        <mxCell id="G_j2vgRkdE4tbqR_UgK8-107" style="vsdxID=73;fillColor=none;gradientColor=none;strokeColor=none;spacingTop=-3;spacingBottom=-3;spacingLeft=-3;spacingRight=-3;labelBackgroundColor=none;rounded=0;html=1;whiteSpace=wrap;" vertex="1" parent="G_j2vgRkdE4tbqR_UgK8-545">
          <mxGeometry x="201" width="150" height="118.5" as="geometry" />
        </mxCell>
        <mxCell id="G_j2vgRkdE4tbqR_UgK8-108" style="vsdxID=74;fillColor=none;gradientColor=none;strokeColor=none;spacingTop=-3;spacingBottom=-3;spacingLeft=-3;spacingRight=-3;labelBackgroundColor=none;rounded=0;html=1;whiteSpace=wrap;" vertex="1" parent="G_j2vgRkdE4tbqR_UgK8-107">
          <mxGeometry width="150" height="118.5" as="geometry" />
        </mxCell>
        <mxCell id="G_j2vgRkdE4tbqR_UgK8-109" style="vsdxID=75;fillColor=none;gradientColor=none;strokeColor=none;spacingTop=-3;spacingBottom=-3;spacingLeft=-3;spacingRight=-3;labelBackgroundColor=none;rounded=0;html=1;whiteSpace=wrap;" vertex="1" parent="G_j2vgRkdE4tbqR_UgK8-108">
          <mxGeometry width="67" height="67" as="geometry" />
        </mxCell>
        <mxCell id="G_j2vgRkdE4tbqR_UgK8-110" style="vsdxID=76;fillColor=#FFFFFF;gradientColor=none;shape=stencil(hZNLEoMgDEBPw5YB4o91P/dwqlamVh1qW719sehIUNtdAo/4iIHA4VGmbU4Ee3S6ueVvlXUlgSMRQtVlrlVnIgInAoei0flVN886s3mbjuQY3ZvXWKG356SgYTyeEmywK+ybnS1cqdqBYxrAPnt5aluZ202gAZ9o7uKsFygdxMzzqXoPGID581zuyzFkZu6V8F92DKvJiCYJ1nP8pxXOGBZ0GgIY2VRcN9vDfUljFUosujj4UrOlexXwGdhpDxZd+O3OrzwljTxP52+K9WXwBPSw7g/8ncY/o2uCZegLVVX2zbj7/iMxS/aBwekD);strokeColor=none;strokeWidth=2;spacingTop=-3;spacingBottom=-3;spacingLeft=-3;spacingRight=-3;labelBackgroundColor=none;rounded=0;html=1;whiteSpace=wrap;" vertex="1" parent="G_j2vgRkdE4tbqR_UgK8-109">
          <mxGeometry width="67" height="67" as="geometry" />
        </mxCell>
        <mxCell id="G_j2vgRkdE4tbqR_UgK8-111" style="vsdxID=77;fillColor=#2c5967;gradientColor=none;shape=stencil(lZXRdoMgDIafxlsOkirjumvfo2e10zNXe6zd9O2noxASdLo7CH/0I/mBBPb38nQrEiXvXdt8FN/VuSsTeE2Uqq5l0VbdOErgkMD+0rTFe9s8rmc7v50m5TT6bL6mL/Q2z2RCvkxZSg42In9nRyuuq2sg3gmjlrVvj9Z+ObWLSsBTnIZq2SsyHRST90DXwf8cltEk4Zp2pf9ik5TMaKEpHMI/A6mUFC8oBlDJLGBcaCbniMjkKBGBMznIYB/AJbBQGoqJ+vmqc0rUu4AwrJTBRmjne4hLA6smXHEss7cWQMWr1ghTXCj3Ib+pMWTWim92Qmes/E60cMAyQ2mZnMOCUJw1sjJ2ZEB4nTKfoGijUTBho1MwwcPnip86k1HU6FYISgRUMu+WoAWz8qj9udu250QGFVtE+UYY1vxAtOkK2+DVfyeMA7z5L1Vd24cjXOcvxRiyrwwcfgA=);strokeColor=none;strokeWidth=2;spacingTop=-3;spacingBottom=-3;spacingLeft=-3;spacingRight=-3;labelBackgroundColor=none;rounded=0;html=1;whiteSpace=wrap;" vertex="1" parent="G_j2vgRkdE4tbqR_UgK8-109">
          <mxGeometry x="1" y="1" width="64" height="63" as="geometry" />
        </mxCell>
        <mxCell id="G_j2vgRkdE4tbqR_UgK8-112" style="vsdxID=78;fillColor=#2c5967;gradientColor=none;shape=stencil(pZLRDsIgDEW/htcF22T6Pud/LBkTIsLC0OnfC2kM2yTRzbfbcm7bkMuwGmTTCwZ88M5exKhaLxkeGYAyUjjlg2JYM6w668TZ2Ztpqe6bSEZ1tfc44UG+HefRA/xJNVUnQrUyE3Qj+N6QRZfrV8Fb0fkP7LEoDzM4dbKzoSwQ/jOkTtbwedJqw5eTfjAEkULTKa0pc9P3ZchCiwKK9Qs=);strokeColor=none;strokeWidth=2;spacingTop=-3;spacingBottom=-3;spacingLeft=-3;spacingRight=-3;labelBackgroundColor=none;rounded=0;html=1;whiteSpace=wrap;" vertex="1" parent="G_j2vgRkdE4tbqR_UgK8-108">
          <mxGeometry x="27" y="26" width="11" height="11" as="geometry" />
        </mxCell>
        <mxCell id="G_j2vgRkdE4tbqR_UgK8-113" style="vsdxID=79;fillColor=#2c5967;gradientColor=none;shape=stencil(lZLdDsIgDIWfhnvWhrj7Od9jcUyIcyxsU/b2QqqZNJnRu/6c8lE4AqvJNKMWIKfZu6t+2HY2Ao8CwA5GezvHSGAtsOqc1xfvlqGlfGySMkU3d08nBJpTMo2AXCktJOUn0p4XT+KC2uVbXeRyGYAVVsgnAnIBZhfYAW7yVwEYsGQ8hlOM9hUGjMVQjMRRf+3FSAeVo0DlrO2dd/Zi/9bb4ec/jsFmjs72PXnrs8/NFEtkRKyf);strokeColor=none;strokeWidth=2;spacingTop=-3;spacingBottom=-3;spacingLeft=-3;spacingRight=-3;labelBackgroundColor=none;rounded=0;html=1;whiteSpace=wrap;" vertex="1" parent="G_j2vgRkdE4tbqR_UgK8-108">
          <mxGeometry x="42" y="46" width="4" height="4" as="geometry" />
        </mxCell>
        <mxCell id="G_j2vgRkdE4tbqR_UgK8-114" style="vsdxID=80;fillColor=#2c5967;gradientColor=none;shape=stencil(pZLRDsIgDEW/htcF22T6Pud/LBkTIsLC0OnfC2kM2yTRzbfbcm7bkMuwGmTTCwZ88M5exKhaLxkeGYAyUjjlg2JYM6w668TZ2Ztpqe6bSEZ1tfc44UG+HefRA/xJNVUnQrUyE3Qj+N6QRZfrV8Fb0fkP7LEoDzM4dbKzoSwQ/jOkTtbwedJqw5eTfjAEkULTKa0pc9P3ZchCiwKK9Qs=);strokeColor=none;strokeWidth=2;spacingTop=-3;spacingBottom=-3;spacingLeft=-3;spacingRight=-3;labelBackgroundColor=none;rounded=0;html=1;whiteSpace=wrap;" vertex="1" parent="G_j2vgRkdE4tbqR_UgK8-108">
          <mxGeometry x="12" y="26" width="11" height="11" as="geometry" />
        </mxCell>
        <mxCell id="G_j2vgRkdE4tbqR_UgK8-115" style="vsdxID=81;fillColor=#2c5967;gradientColor=none;shape=stencil(pZLRDsIgDEW/htcF22T6Pud/LBkTIsLC0OnfC2kM2yTRzbfbcm7bkMuwGmTTCwZ88M5exKhaLxkeGYAyUjjlg2JYM6w668TZ2Ztpqe6bSEZ1tfc44UG+HefRA/xJNVUnQrUyE3Qj+N6QRZfrV8Fb0fkP7LEoDzM4dbKzoSwQ/jOkTtbwedJqw5eTfjAEkULTKa0pc9P3ZchCiwKK9Qs=);strokeColor=none;strokeWidth=2;spacingTop=-3;spacingBottom=-3;spacingLeft=-3;spacingRight=-3;labelBackgroundColor=none;rounded=0;html=1;whiteSpace=wrap;" vertex="1" parent="G_j2vgRkdE4tbqR_UgK8-108">
          <mxGeometry x="27" y="11" width="11" height="11" as="geometry" />
        </mxCell>
        <mxCell id="G_j2vgRkdE4tbqR_UgK8-116" style="vsdxID=82;fillColor=#2c5967;gradientColor=none;shape=stencil(pZLRDsIgDEW/htcF22T6Pud/LBkTIsLC0OnfC2kM2yTRzbfbcm7bkMuwGmTTCwZ88M5exKhaLxkeGYAyUjjlg2JYM6w668TZ2Ztpqe6bSEZ1tfc44UG+HefRA/xJNVUnQrUyE3Qj+N6QRZfrV8Fb0fkP7LEoDzM4dbKzoSwQ/jOkTtbwedJqw5eTfjAEkULTKa0pc9P3ZchCiwKK9Qs=);strokeColor=none;strokeWidth=2;spacingTop=-3;spacingBottom=-3;spacingLeft=-3;spacingRight=-3;labelBackgroundColor=none;rounded=0;html=1;whiteSpace=wrap;" vertex="1" parent="G_j2vgRkdE4tbqR_UgK8-108">
          <mxGeometry x="42" y="11" width="11" height="11" as="geometry" />
        </mxCell>
        <mxCell id="G_j2vgRkdE4tbqR_UgK8-117" style="vsdxID=83;fillColor=#2c5967;gradientColor=none;shape=stencil(pZLRDsIgDEW/htcF22T6Pud/LBkTIsLC0OnfC2kM2yTRzbfbcm7bkMuwGmTTCwZ88M5exKhaLxkeGYAyUjjlg2JYM6w668TZ2Ztpqe6bSEZ1tfc44UG+HefRA/xJNVUnQrUyE3Qj+N6QRZfrV8Fb0fkP7LEoDzM4dbKzoSwQ/jOkTtbwedJqw5eTfjAEkULTKa0pc9P3ZchCiwKK9Qs=);strokeColor=none;strokeWidth=2;spacingTop=-3;spacingBottom=-3;spacingLeft=-3;spacingRight=-3;labelBackgroundColor=none;rounded=0;html=1;whiteSpace=wrap;" vertex="1" parent="G_j2vgRkdE4tbqR_UgK8-108">
          <mxGeometry x="12" y="11" width="11" height="11" as="geometry" />
        </mxCell>
        <mxCell id="G_j2vgRkdE4tbqR_UgK8-118" style="vsdxID=84;fillColor=#2c5967;gradientColor=none;shape=stencil(vZJNDsIgEIVPw5bQGa2yrvUeTUqFiKWh1J/bC2GhaKSpJu7eDN8bJpNHsBplMwgCbHTWHMVFtU4S3BEA1UthlfOKYE2w6owVB2umvo310AQyqJM5hwnX6CsYCx5gt7TeR1irPgNn0C/BRd//DU5PxhkteYJvVhTh83ROsfiJhzUttxn+baHFhrmN5g1ePDLWKa1jRJ/fXzPpWzHPWN8B);strokeColor=none;strokeWidth=2;spacingTop=-3;spacingBottom=-3;spacingLeft=-3;spacingRight=-3;labelBackgroundColor=none;rounded=0;html=1;whiteSpace=wrap;" vertex="1" parent="G_j2vgRkdE4tbqR_UgK8-108">
          <mxGeometry x="12" y="41" width="42" height="15" as="geometry" />
        </mxCell>
        <mxCell id="G_j2vgRkdE4tbqR_UgK8-119" style="vsdxID=85;fillColor=#2c5967;gradientColor=none;shape=stencil(pZLRDsIgDEW/htcF22T6Pud/LBkTIsLC0OnfC2kM2yTRzbfbcm7bkMuwGmTTCwZ88M5exKhaLxkeGYAyUjjlg2JYM6w668TZ2Ztpqe6bSEZ1tfc44UG+HefRA/xJNVUnQrUyE3Qj+N6QRZfrV8Fb0fkP7LEoDzM4dbKzoSwQ/jOkTtbwedJqw5eTfjAEkULTKa0pc9P3ZchCiwKK9Qs=);strokeColor=none;strokeWidth=2;spacingTop=-3;spacingBottom=-3;spacingLeft=-3;spacingRight=-3;labelBackgroundColor=none;rounded=0;html=1;whiteSpace=wrap;" vertex="1" parent="G_j2vgRkdE4tbqR_UgK8-108">
          <mxGeometry x="42" y="26" width="11" height="11" as="geometry" />
        </mxCell>
        <mxCell id="G_j2vgRkdE4tbqR_UgK8-92" value="" style="rounded=0;whiteSpace=wrap;html=1;align=left;verticalAlign=middle;spacingLeft=-3;spacingRight=-3;spacingTop=-3;spacingBottom=-3;fontFamily=Helvetica;fontSize=12;fontColor=default;labelBackgroundColor=none;fillColor=none;gradientColor=none;dashed=1;" vertex="1" parent="G_j2vgRkdE4tbqR_UgK8-108">
          <mxGeometry x="-270" y="-21.5" width="420" height="140" as="geometry" />
        </mxCell>
        <mxCell id="G_j2vgRkdE4tbqR_UgK8-120" value="&lt;p style=&quot;align:left;margin-left:0;margin-right:0;margin-top:0px;margin-bottom:0px;text-indent:0;valign:middle;direction:ltr;&quot;&gt;&lt;font style=&quot;font-size:16px;font-family:OracleSans-Regular;color:#000000;direction:ltr;letter-spacing:0px;line-height:120%;opacity:1&quot;&gt;Worker&lt;br/&gt;&lt;/font&gt;&lt;/p&gt;" style="verticalAlign=middle;align=left;vsdxID=86;fillColor=none;gradientColor=none;shape=stencil(nZBLDoAgDERP0z3SIyjew0SURgSD+Lu9kMZoXLhwN9O+tukAlrNpJg1SzDH4QW/URgNYgZTkjA4UkwJUgGXng+6DX1zLfmoymdXo17xh5zmRJ6Q42BWCfc2oJfdAr+Yv+AP9Cb7OJ3H/2JG1HNGz/84klThPVCc=);strokeColor=none;spacingTop=-3;spacingBottom=-3;spacingLeft=-3;spacingRight=-3;labelBackgroundColor=none;rounded=0;html=1;whiteSpace=wrap;" vertex="1" parent="G_j2vgRkdE4tbqR_UgK8-107">
          <mxGeometry x="6" y="67" width="101" height="20" as="geometry" />
        </mxCell>
        <mxCell id="G_j2vgRkdE4tbqR_UgK8-546" value="" style="rounded=0;whiteSpace=wrap;html=1;align=left;verticalAlign=middle;spacingLeft=-3;spacingRight=-3;spacingTop=-3;spacingBottom=-3;fontFamily=Helvetica;fontSize=12;fontColor=default;labelBackgroundColor=none;fillColor=none;gradientColor=none;dashed=1;strokeColor=#CC6600;" vertex="1" parent="1">
          <mxGeometry x="972.5" y="243" width="955" height="663" as="geometry" />
        </mxCell>
        <mxCell id="Aclf-5IVf1YPgZWVU2Xc-139" style="vsdxID=138;fillColor=none;gradientColor=none;strokeColor=none;spacingTop=-3;spacingBottom=-3;spacingLeft=-3;spacingRight=-3;labelBackgroundColor=none;rounded=0;html=1;whiteSpace=wrap;" parent="1" vertex="1">
          <mxGeometry x="1090" y="1000" width="86" height="63" as="geometry" />
        </mxCell>
        <mxCell id="Aclf-5IVf1YPgZWVU2Xc-140" style="vsdxID=139;fillColor=#2c5967;gradientColor=none;shape=stencil(jVTRcoMgEPwaXhk4JMHnNP2PTGMqU6sZYlr9++og8Tgq4xsce+7t3XpMnR715V4xEI/edV/Vr732NVNvDMC2deVsP52YOjN1unWu+nTds736+/0yI+fTd/czf2HweVrMKSBGf5XC39899uPpPFj65+ORG7MkyDhDDEACIyRJg6IYFZWxQbvClwAAlxDT4tKWkIhJNeHMUiKGQEp0EpW4JBUjdmkkCnHTUoaR9npLI5lnY9vds8/7BLjOGkVyqYlRQspLkDG8OJAultzIWBJGvVTy8pCjxzmhon8sg4oMJZW8gHxLV8iWdQw3RDv+bBid5LogP0pqIYzaKx7nyLStkFYJyYS27ETGnvcTAU+HdQvdbNP4JYbf6daaQn7jqfMf);strokeColor=none;strokeWidth=2;spacingTop=-3;spacingBottom=-3;spacingLeft=-3;spacingRight=-3;labelBackgroundColor=none;rounded=0;html=1;whiteSpace=wrap;" parent="Aclf-5IVf1YPgZWVU2Xc-139" vertex="1">
          <mxGeometry x="58" y="9" width="21" height="21" as="geometry" />
        </mxCell>
        <mxCell id="Aclf-5IVf1YPgZWVU2Xc-141" style="vsdxID=140;fillColor=#2c5967;gradientColor=none;shape=stencil(pVjbUtwwDP2afdXYlq/PlP4HU5ayU8oyy9LC31fbxBfJcQjwljhHtq5HcnZ49Xx/87TfGfV8Ph1/7f8ebs/3O/y2M+bweL8/Hc70tMPrHV7dHU/7n6fjy+Pt9P50c0Fenn4f/1x2eJ3kkgbjL1JGvU0rGkGZ/yvfJ4GHw2MjECO49EEBrbmABYb/8XKaVNKzhAcdZol5ySjQk4x6NTMKwc2gecWQInEG4QxS4OalN5SowfEhgJfHNzvPhwULwfPzdQKH/PxAgp6fL63n3goGXPiIe0kAcV2gM1ABJm6gK5tk+7yHlLh9itvmsQYWW8Sini5BckzPdbAVXgC9GjQXQFluU4QoYuYQvOU2VWcVu2yqkcWNLrUOosiZduf5MGvARn5+o2Q+XoFy4nhhPHcWUtr5rZ5FD1aPwdIupHQ03C7FbTIJNHKbmmTKNReyBWOXcj1biW0CHkTGvMMypingMcsYA0qUwQLNUOUXxtpKM9pX5h3TDFmNguYWaEZr8DJnVmmGBPSHaCZCsOv4LnVKZq9UhBKupQJJ3DTFzUILuKKmYjqmlJN9uRZA+y/hO2V6H2gZYg9eMC1RhyigNg9zI4Mk+1gBLUeYPvM+3Ql0GWnAm3fVpbzNUcz6ooIQuorwgkQralSRTa3pfufsHErsIPwVS68qjEPVJZoTLc0tYkQghjPjO+lgmjlhm0BDlZ8U6GzofNiI5LC6kjvZhy2t53kGvHAhtQpJKgW0XB/dpCfxXdvUNZfG2lJz1XLUo7zQXN2Ftl1Ro6mBCrifNMvOuUCjnDRbJfM0pGtj3eStdnza5i0fwIjYNlHLcVSlYle0bVHbyqOVyAyzMmeEppa3wGmYt1+BV6IaDb2utJa3WitOei9A0tx7qAG9IGMaoC33XkWNLjVYGVz3O+dxMACKCZFiHEWqx1SWhqnOHZaaQttYG8ku3cJkbSQP0XYKG9G9WlRt5GlN4UZiQ0Lkj58Cd6p0jbEIjAc1Ujj37JW7RXvd3jYIb7ig00O93t8dHh6mvwPtd/k7gJamXwl4/Q8=);strokeColor=none;strokeWidth=2;spacingTop=-3;spacingBottom=-3;spacingLeft=-3;spacingRight=-3;labelBackgroundColor=none;rounded=0;html=1;whiteSpace=wrap;" parent="Aclf-5IVf1YPgZWVU2Xc-139" vertex="1">
          <mxGeometry y="27" width="86" height="35" as="geometry" />
        </mxCell>
        <mxCell id="Aclf-5IVf1YPgZWVU2Xc-142" style="vsdxID=141;fillColor=#2c5967;gradientColor=none;shape=stencil(jVRBcoMwDHyNrxpbhsSc0/QfmYYUTylkHNKS3xfGGGRRPNxsecVqpUVCnx7V5V4KlI/OtV/lr712ldBvAtE2VelsN5yEPgt9urWu/HTts7n6+/0yIsfTd/szfqH3ebkcU1C+/FVJf3/32I+n82Dln49HMGZKUHGG7JEFXrhK6jXH6KiMDdoFPgUQQWFMS0ubQjImzRlnkpIwBFKmk6mkJekYsUsjU0ibFhg0SKZwaf6GRjbP2ja7Z5/2CUKeNIoClTOjhJRZkDGQHVgXCzAqlkRRs0ooDil6mhMq+scypMhQUgEZplu6QLasY8Aw7fSzYXQK8oz9KGsLUdRe8TRHrdu67vTspmVCW3ZiY0/7iYGHw7KFbrau/RKj73xrDSG/8fT5Dw==);strokeColor=none;strokeWidth=2;spacingTop=-3;spacingBottom=-3;spacingLeft=-3;spacingRight=-3;labelBackgroundColor=none;rounded=0;html=1;whiteSpace=wrap;" parent="Aclf-5IVf1YPgZWVU2Xc-139" vertex="1">
          <mxGeometry x="5" y="9" width="21" height="21" as="geometry" />
        </mxCell>
        <mxCell id="Aclf-5IVf1YPgZWVU2Xc-143" style="vsdxID=142;fillColor=#2c5967;gradientColor=none;shape=stencil(jVTLcoMwDPwaXz1GKoGe0/Q/Mg0pnlLIOKTFfx88JsiWxwk3S+wirV4C99f2eGkEqOtohp/mX5/GVuCHANB92xg9zi+BB4H782CabzPc+pO3L0eHdK/f4c/9YfK8UjkKKOvNQnn702O/bsaDC/+5qmRVL4QiZqgJmMNCQpqQYzBKIxOW4IsDQDo7DBumtrhUHLRkMZ+GDCI8gjKdTGWYEsaITRqZwrBoaQTLa53TyPrZ6X5z71/MiUR4Oilp/YizSqrf5Y41DWpZVrGoELWpliHhkU8h35BNDLlsmk+uogTJTQ4JsGk+tCVrMWyaD+0JoTZuChHSfNZJSnclbE52lljPX0wTQ88POkJn3XX+hoXf+dGaXf7g4eEO);strokeColor=none;strokeWidth=2;spacingTop=-3;spacingBottom=-3;spacingLeft=-3;spacingRight=-3;labelBackgroundColor=none;rounded=0;html=1;whiteSpace=wrap;" parent="Aclf-5IVf1YPgZWVU2Xc-139" vertex="1">
          <mxGeometry x="30" width="26" height="26" as="geometry" />
        </mxCell>
        <mxCell id="Aclf-5IVf1YPgZWVU2Xc-144" style="vsdxID=143;fillColor=#2c5967;gradientColor=none;shape=stencil(nZFLDsIwDERP423kxhDYl3KPSk1JREiqNOVzexIsRIXER92Nx2+8GAPVo2kHDRLHFMNRX2yXDNAOpLTe6GhTVkANUN2HqA8xTL7jeWgLWdQpnMuFK+dWSlTrkpJ4Ywcf055hZ/0MxmVghV9QSQK3/+PP5TJYCbX5jP/oIotXi711jp8w37+3ni3+GDV3);strokeColor=none;strokeWidth=2;spacingTop=-3;spacingBottom=-3;spacingLeft=-3;spacingRight=-3;labelBackgroundColor=none;rounded=0;html=1;whiteSpace=wrap;" parent="Aclf-5IVf1YPgZWVU2Xc-139" vertex="1">
          <mxGeometry x="30" y="46" width="2" height="16" as="geometry" />
        </mxCell>
        <mxCell id="Aclf-5IVf1YPgZWVU2Xc-145" style="vsdxID=144;fillColor=#2c5967;gradientColor=none;shape=stencil(nZFLDsMgDERP4y0iuKHZp+k9IoUUVAoRIf3cPlCr6mdRRezG9hsvZgDbWfeTAsHnGPxZ3cwQNeABhDBOq2BiUoAdYDv6oE7BL26geeozmdXFX/OHO/lqZE2dXYI/aMOf05Fga1wpzL/ASjK53wzzP3+bHZNiO/46FsHlWSTxjnw01lJjn/ffitKK6sVuBQ==);strokeColor=none;strokeWidth=2;spacingTop=-3;spacingBottom=-3;spacingLeft=-3;spacingRight=-3;labelBackgroundColor=none;rounded=0;html=1;whiteSpace=wrap;" parent="Aclf-5IVf1YPgZWVU2Xc-139" vertex="1">
          <mxGeometry x="53" y="46" width="2" height="16" as="geometry" />
        </mxCell>
        <mxCell id="Aclf-5IVf1YPgZWVU2Xc-146" style="vsdxID=145;fillColor=#2c5967;gradientColor=none;shape=stencil(UzV2Ls5ILEhVNTIoLinKz04tz0wpyVA1dlE1MsrMy0gtyiwBslSNXVWNndPyi1LTi/JL81Ig/IJEkEoQKze/DGRCBUSfAUiHkUElhGdooWdiBhZxgyjOyczDrdjAALdSmCRZivEoNTHTMzQlVjEBzwEZiGBJy8zJgYQqsjx6MAKFIFFg7AoA);strokeColor=none;strokeWidth=2;spacingTop=-3;spacingBottom=-3;spacingLeft=-3;spacingRight=-3;labelBackgroundColor=none;rounded=0;html=1;whiteSpace=wrap;" parent="Aclf-5IVf1YPgZWVU2Xc-139" vertex="1">
          <mxGeometry x="77" y="49" width="2" height="13" as="geometry" />
        </mxCell>
        <mxCell id="Aclf-5IVf1YPgZWVU2Xc-147" style="vsdxID=146;fillColor=#2c5967;gradientColor=none;shape=stencil(UzV2Ls5ILEhVNTIoLinKz04tz0wpyVA1dlE1MsrMy0gtyiwBslSNXVWNndPyi1LTi/JL81Ig/IJEkEoQKze/DGRCBUSfAUiHkUElMs8NojAnMw+nQkMDPEphkuQpttAzMcOt3NRYz8KUPDejKAQyEEGSlpmTAwlRZHn0IAQKQYLf2BUA);strokeColor=none;strokeWidth=2;spacingTop=-3;spacingBottom=-3;spacingLeft=-3;spacingRight=-3;labelBackgroundColor=none;rounded=0;html=1;whiteSpace=wrap;" parent="Aclf-5IVf1YPgZWVU2Xc-139" vertex="1">
          <mxGeometry x="6" y="49" width="2" height="13" as="geometry" />
        </mxCell>
      </root>
    </mxGraphModel>
  </diagram>
</mxfile>
